<svg width="1207" height="762" viewBox="0 0 1207 762" fill="none" xmlns="http://www.w3.org/2000/svg">
<path d="M807.834 0C812.467 0 816.957 1.60858 820.535 4.55098L853.465 31.6238C857.043 34.5662 861.533 36.1748 866.166 36.1748H1187C1198.05 36.1748 1207 45.1291 1207 56.1748V702.324C1207 713.37 1198.05 722.324 1187 722.324H1056.29C1049.28 722.324 1042.79 725.993 1039.17 731.994L1026.9 752.33C1023.28 758.331 1016.78 762 1009.77 762H198.225C191.217 762 184.72 758.331 181.1 752.33L168.833 731.994C165.213 725.993 158.716 722.324 151.707 722.324H20C8.9543 722.324 0 713.37 0 702.324V56.1748C0 45.1291 8.9543 36.1748 20 36.1748H341.834C346.467 36.1748 350.957 34.5662 354.535 31.6238L387.465 4.55098C391.043 1.60858 395.533 0 400.166 0H807.834Z" fill="#060606"/>
</svg>
