<svg width="1207" height="671" viewBox="0 0 1207 671" fill="none" xmlns="http://www.w3.org/2000/svg">
<mask id="path-1-inside-1_176_13" fill="white">
<path d="M1187 0C1198.05 0 1207 8.95431 1207 20V589.329C1207 594.633 1204.89 599.72 1201.14 603.471L1139.47 665.142C1135.72 668.893 1130.63 671 1125.33 671H20C8.9543 671 0 662.046 0 651V103C0 91.9543 8.95431 83 20 83H357.442C363.486 83 369.207 80.266 373.004 75.5624L427.996 7.43762C431.793 2.734 437.514 0 443.558 0H1187Z"/>
</mask>
<path d="M373.004 75.5624L371.448 74.3061L373.004 75.5624ZM1139.47 665.142L1138.06 663.728L1139.47 665.142ZM1201.14 603.471L1199.73 602.057V602.057L1201.14 603.471ZM1207 20H1205V589.329H1207H1209V20H1207ZM1201.14 603.471L1199.73 602.057L1138.06 663.728L1139.47 665.142L1140.89 666.556L1202.56 604.885L1201.14 603.471ZM1125.33 671V669H20V671V673H1125.33V671ZM0 651H2V103H0H-2V651H0ZM20 83V85H357.442V83V81H20V83ZM373.004 75.5624L374.56 76.8186L429.552 8.69386L427.996 7.43762L426.44 6.18139L371.448 74.3061L373.004 75.5624ZM443.558 0V2H1187V0V-2H443.558V0ZM427.996 7.43762L429.552 8.69386C432.97 4.4606 438.118 2 443.558 2V0V-2C436.909 -2 430.616 1.0074 426.44 6.18139L427.996 7.43762ZM357.442 83V85C364.091 85 370.384 81.9926 374.56 76.8186L373.004 75.5624L371.448 74.3061C368.03 78.5394 362.882 81 357.442 81V83ZM0 103H2C2 93.0589 10.0589 85 20 85V83V81C7.84973 81 -2 90.8498 -2 103H0ZM20 671V669C10.0589 669 2 660.941 2 651H0H-2C-2 663.15 7.84972 673 20 673V671ZM1139.47 665.142L1138.06 663.728C1134.68 667.104 1130.1 669 1125.33 669V671V673C1131.16 673 1136.76 670.682 1140.89 666.556L1139.47 665.142ZM1207 589.329H1205C1205 594.103 1203.1 598.681 1199.73 602.057L1201.14 603.471L1202.56 604.885C1206.68 600.76 1209 595.164 1209 589.329H1207ZM1207 20H1209C1209 7.84973 1199.15 -2 1187 -2V0V2C1196.94 2 1205 10.0589 1205 20H1207Z" fill="#00FFFF" mask="url(#path-1-inside-1_176_13)"/>
</svg>
