<svg width="1207" height="922" viewBox="0 0 1207 922" fill="none" xmlns="http://www.w3.org/2000/svg">
<mask id="path-1-inside-1_185_46" fill="white">
<path d="M1187 0C1198.05 0 1207 8.95431 1207 20V840.329C1207 845.633 1204.89 850.72 1201.14 854.471L1139.47 916.142C1135.72 919.893 1130.63 922 1125.33 922H20C8.9543 922 0 913.046 0 902V100C0 88.9543 8.95431 80 20 80H359.863C365.908 80 371.629 77.266 375.426 72.5624L427.996 7.43765C431.793 2.73401 437.514 0 443.559 0H1187Z"/>
</mask>
<path d="M375.426 72.5624L373.87 71.3061L375.426 72.5624ZM1139.47 916.142L1138.06 914.728L1139.47 916.142ZM1201.14 854.471L1199.73 853.057V853.057L1201.14 854.471ZM1207 20H1205V840.329H1207H1209V20H1207ZM1201.14 854.471L1199.73 853.057L1138.06 914.728L1139.47 916.142L1140.89 917.556L1202.56 855.885L1201.14 854.471ZM1125.33 922V920H20V922V924H1125.33V922ZM0 902H2V100H0H-2V902H0ZM20 80V82H359.863V80V78H20V80ZM375.426 72.5624L376.982 73.8186L429.552 8.69389L427.996 7.43765L426.44 6.18142L373.87 71.3061L375.426 72.5624ZM443.559 0V2H1187V0V-2H443.559V0ZM427.996 7.43765L429.552 8.69389C432.97 4.46061 438.118 2 443.559 2V0V-2C436.909 -2 430.616 1.00742 426.44 6.18142L427.996 7.43765ZM359.863 80V82C366.513 82 372.805 78.9926 376.982 73.8186L375.426 72.5624L373.87 71.3061C370.452 75.5394 365.304 78 359.863 78V80ZM0 100H2C2 90.0589 10.0589 82 20 82V80V78C7.84973 78 -2 87.8498 -2 100H0ZM20 922V920C10.0589 920 2 911.941 2 902H0H-2C-2 914.15 7.84972 924 20 924V922ZM1139.47 916.142L1138.06 914.728C1134.68 918.104 1130.1 920 1125.33 920V922V924C1131.16 924 1136.76 921.682 1140.89 917.556L1139.47 916.142ZM1207 840.329H1205C1205 845.103 1203.1 849.681 1199.73 853.057L1201.14 854.471L1202.56 855.885C1206.68 851.76 1209 846.164 1209 840.329H1207ZM1207 20H1209C1209 7.84973 1199.15 -2 1187 -2V0V2C1196.94 2 1205 10.0589 1205 20H1207Z" fill="#00FFFF" mask="url(#path-1-inside-1_185_46)"/>
</svg>
