<svg width="717" height="588" viewBox="0 0 717 588" fill="none" xmlns="http://www.w3.org/2000/svg">
<mask id="path-1-inside-1_172_18" fill="white">
<path d="M717 497.328C717 502.632 714.893 507.719 711.142 511.47L640.471 582.142C636.72 585.893 631.633 588 626.329 588H20C8.9543 588 0 579.046 0 568V473.372C0 466.32 3.71339 459.79 9.77337 456.184L26.2266 446.394C32.2866 442.789 36 436.258 36 429.207V159.791C36 152.74 32.2866 146.209 26.2266 142.604L9.77337 132.814C3.71339 129.208 0 122.678 0 115.626V20C0 8.95431 8.95431 0 20 0H697C708.046 0 717 8.95431 717 20V497.328Z"/>
</mask>
<path d="M9.77337 132.814L9.26204 133.674L9.77337 132.814ZM26.2266 142.604L26.738 141.744L26.2266 142.604ZM26.2266 446.394L25.7153 445.535L26.2266 446.394ZM9.77337 456.184L10.2847 457.043L9.77337 456.184ZM640.471 582.142L641.178 582.849L640.471 582.142ZM711.142 511.47L710.435 510.763L711.142 511.47ZM711.142 511.47L710.435 510.763L639.764 581.435L640.471 582.142L641.178 582.849L711.849 512.177L711.142 511.47ZM626.329 588V587H20V588V589H626.329V588ZM0 568H1V473.372H0H-1V568H0ZM9.77337 456.184L10.2847 457.043L26.738 447.254L26.2266 446.394L25.7153 445.535L9.26204 455.324L9.77337 456.184ZM36 429.207H37V159.791H36H35V429.207H36ZM26.2266 142.604L26.738 141.744L10.2847 131.955L9.77337 132.814L9.26204 133.674L25.7153 143.463L26.2266 142.604ZM0 115.626H1V20H0H-1V115.626H0ZM20 0V1H697V0V-1H20V0ZM717 20H716V497.328H717H718V20H717ZM697 0V1C707.493 1 716 9.50659 716 20H717H718C718 8.40202 708.598 -1 697 -1V0ZM0 20H1C1 9.50659 9.50659 1 20 1V0V-1C8.40202 -1 -1 8.40202 -1 20H0ZM9.77337 132.814L10.2847 131.955C4.52772 128.529 1 122.325 1 115.626H0H-1C-1 123.031 2.89906 129.888 9.26204 133.674L9.77337 132.814ZM36 159.791H37C37 152.387 33.1009 145.53 26.738 141.744L26.2266 142.604L25.7153 143.463C31.4723 146.889 35 153.092 35 159.791H36ZM26.2266 446.394L26.738 447.254C33.1009 443.468 37 436.611 37 429.207H36H35C35 435.906 31.4723 442.109 25.7153 445.535L26.2266 446.394ZM0 473.372H1C1 466.673 4.52772 460.469 10.2847 457.043L9.77337 456.184L9.26204 455.324C2.89906 459.11 -1 465.967 -1 473.372H0ZM20 588V587C9.50658 587 1 578.493 1 568H0H-1C-1 579.598 8.40201 589 20 589V588ZM640.471 582.142L639.764 581.435C636.201 584.998 631.368 587 626.329 587V588V589C631.899 589 637.24 586.787 641.178 582.849L640.471 582.142ZM711.142 511.47L711.849 512.177C715.788 508.239 718 502.898 718 497.328H717H716C716 502.367 713.998 507.2 710.435 510.763L711.142 511.47Z" fill="white" mask="url(#path-1-inside-1_172_18)"/>
</svg>
