<svg width="1207" height="650" viewBox="0 0 1207 650" fill="none" xmlns="http://www.w3.org/2000/svg">
<mask id="path-1-inside-1_167_608" fill="white">
<path d="M1131.95 0C1136.99 0 1141.84 1.90011 1145.54 5.32074L1206.74 61.9595C1206.77 61.9855 1206.81 62 1206.85 62C1206.93 62 1207 62.0682 1207 62.1523V568.329C1207 573.633 1204.89 578.72 1201.14 582.471L1139.47 644.142C1135.72 647.893 1130.63 650 1125.33 650H20C8.9543 650 0 641.046 0 630V82C0 70.9543 8.95431 62 20 62H755.166C760.202 62 765.053 60.0999 768.75 56.6793L824.25 5.32074C827.947 1.90011 832.798 0 837.834 0H1131.95Z"/>
</mask>
<path d="M824.25 5.32074L824.929 6.05471L824.25 5.32074ZM768.75 56.6793L768.071 55.9453L768.75 56.6793ZM1139.47 644.142L1138.77 643.435L1139.47 644.142ZM1201.14 582.471L1200.44 581.764V581.764L1201.14 582.471ZM1206.74 61.9595L1207.42 61.2255L1206.74 61.9595ZM1145.54 5.32074L1146.22 4.58678L1145.54 5.32074ZM1145.54 5.32074L1144.86 6.0547L1206.07 62.6935L1206.74 61.9595L1207.42 61.2255L1146.22 4.58678L1145.54 5.32074ZM1207 62.1523H1206V568.329H1207H1208V62.1523H1207ZM1201.14 582.471L1200.44 581.764L1138.77 643.435L1139.47 644.142L1140.18 644.849L1201.85 583.178L1201.14 582.471ZM1125.33 650V649H20V650V651H1125.33V650ZM0 630H1V82H0H-1V630H0ZM20 62V63H755.166V62V61H20V62ZM768.75 56.6793L769.429 57.4132L824.929 6.05471L824.25 5.32074L823.571 4.58678L768.071 55.9453L768.75 56.6793ZM837.834 0V1H1131.95V0V-1H837.834V0ZM824.25 5.32074L824.929 6.05471C828.441 2.8051 833.049 1 837.834 1V0V-1C832.546 -1 827.452 0.995115 823.571 4.58678L824.25 5.32074ZM755.166 62V63C760.454 63 765.548 61.0049 769.429 57.4132L768.75 56.6793L768.071 55.9453C764.559 59.1949 759.951 61 755.166 61V62ZM0 82H1C1 71.5066 9.50659 63 20 63V62V61C8.40202 61 -1 70.402 -1 82H0ZM20 650V649C9.50658 649 1 640.493 1 630H0H-1C-1 641.598 8.40201 651 20 651V650ZM1139.47 644.142L1138.77 643.435C1135.2 646.998 1130.37 649 1125.33 649V650V651C1130.9 651 1136.24 648.787 1140.18 644.849L1139.47 644.142ZM1207 568.329H1206C1206 573.368 1204 578.201 1200.44 581.764L1201.14 582.471L1201.85 583.178C1205.79 579.24 1208 573.899 1208 568.329H1207ZM1206.85 62V63C1206.38 63 1206 62.6205 1206 62.1523H1207H1208C1208 61.5159 1207.48 61 1206.85 61V62ZM1206.74 61.9595L1206.07 62.6935C1206.28 62.8905 1206.56 63 1206.85 63V62V61C1207.06 61 1207.27 61.0805 1207.42 61.2255L1206.74 61.9595ZM1145.54 5.32074L1146.22 4.58678C1142.34 0.995111 1137.24 -1 1131.95 -1V0V1C1136.74 1 1141.35 2.8051 1144.86 6.0547L1145.54 5.32074Z" fill="white" mask="url(#path-1-inside-1_167_608)"/>
</svg>
