<svg width="1207" height="553" viewBox="0 0 1207 553" fill="none" xmlns="http://www.w3.org/2000/svg">
<mask id="path-1-inside-1_208_26" fill="white">
<path d="M1187 0C1198.05 0 1207 8.9543 1207 20V457.928C1207 463.232 1204.89 468.319 1201.14 472.07L1126.07 547.142C1122.32 550.893 1117.23 553 1111.93 553H20C8.95434 553 0 544.046 0 533V100C0 88.9543 8.95431 80 20 80H470.863C476.908 80 482.629 77.266 486.426 72.5624L538.996 7.43765C542.793 2.73401 548.514 0 554.559 0H1187Z"/>
</mask>
<path d="M538.996 7.43765L540.552 8.69389L538.996 7.43765ZM486.426 72.5624L487.982 73.8186L486.426 72.5624ZM1126.07 547.142L1124.66 545.728L1126.07 547.142ZM1201.14 472.07L1202.56 473.484L1201.14 472.07ZM1207 20H1205V457.928H1207H1209V20H1207ZM1201.14 472.07L1199.73 470.656L1124.66 545.728L1126.07 547.142L1127.48 548.556L1202.56 473.484L1201.14 472.07ZM1111.93 553V551H20V553V555H1111.93V553ZM0 533H2V100H0H-2V533H0ZM20 80V82H470.863V80V78H20V80ZM486.426 72.5624L487.982 73.8186L540.552 8.69389L538.996 7.43765L537.44 6.18142L484.87 71.3061L486.426 72.5624ZM554.558 0V2H1187V0V-2H554.558V0ZM538.996 7.43765L540.552 8.69389C543.97 4.46061 549.118 2 554.558 2V0V-2C547.909 -2 541.616 1.00742 537.44 6.18142L538.996 7.43765ZM470.863 80V82C477.513 82 483.805 78.9926 487.982 73.8186L486.426 72.5624L484.87 71.3061C481.452 75.5394 476.304 78 470.863 78V80ZM0 100H2C2 90.0589 10.0589 82 20 82V80V78C7.84974 78 -2 87.8497 -2 100H0ZM20 553V551C10.0589 551 2 542.941 2 533H0H-2C-2 545.15 7.84978 555 20 555V553ZM1126.07 547.142L1124.66 545.728C1121.28 549.104 1116.7 551 1111.93 551V553V555C1117.76 555 1123.36 552.682 1127.48 548.556L1126.07 547.142ZM1207 457.928H1205C1205 462.702 1203.1 467.28 1199.73 470.656L1201.14 472.07L1202.56 473.484C1206.68 469.358 1209 463.762 1209 457.928H1207ZM1207 20H1209C1209 7.84973 1199.15 -2 1187 -2V0V2C1196.94 2 1205 10.0589 1205 20H1207Z" fill="#00FFFF" mask="url(#path-1-inside-1_208_26)"/>
</svg>
