<svg width="1207" height="653" viewBox="0 0 1207 653" fill="none" xmlns="http://www.w3.org/2000/svg">
<mask id="path-1-inside-1_172_58" fill="white">
<path d="M713.662 0C717.786 0 721.81 1.27499 725.181 3.65035L758.819 27.3496C762.19 29.725 766.214 31 770.338 31H1187C1198.05 31 1207 39.9543 1207 51V599C1207 610.046 1198.05 619 1187 619H1055.38C1048.87 619 1042.77 622.166 1039.03 627.488L1027.04 644.512C1023.3 649.834 1017.2 653 1010.69 653H197.313C190.805 653 184.704 649.834 180.958 644.512L168.975 627.488C165.229 622.166 159.128 619 152.62 619H20C8.9543 619 0 610.046 0 599V51C0 39.9543 8.9543 31 20 31H436.662C440.786 31 444.81 29.725 448.181 27.3496L481.819 3.65035C485.19 1.275 489.214 0 493.338 0H713.662Z"/>
</mask>
<path d="M481.819 3.65035L481.243 2.83287L481.819 3.65035ZM448.181 27.3496L448.757 28.1671L448.181 27.3496ZM180.958 644.512L180.14 645.088L180.958 644.512ZM1027.04 644.512L1027.86 645.088L1027.04 644.512ZM1039.03 627.488L1038.21 626.912L1039.03 627.488ZM758.819 27.3496L759.395 26.5322L758.819 27.3496ZM725.181 3.65035L724.605 4.46783L725.181 3.65035ZM725.181 3.65035L724.605 4.46783L758.243 28.1671L758.819 27.3496L759.395 26.5322L725.757 2.83287L725.181 3.65035ZM770.338 31V32H1187V31V30H770.338V31ZM1207 51H1206V599H1207H1208V51H1207ZM1187 619V618H1055.38V619V620H1187V619ZM1039.03 627.488L1038.21 626.912L1026.22 643.936L1027.04 644.512L1027.86 645.088L1039.84 628.064L1039.03 627.488ZM1010.69 653V652H197.313V653V654H1010.69V653ZM180.958 644.512L181.776 643.936L169.792 626.912L168.975 627.488L168.157 628.064L180.14 645.088L180.958 644.512ZM152.62 619V618H20V619V620H152.62V619ZM0 599H1V51H0H-1V599H0ZM20 31V32H436.662V31V30H20V31ZM448.181 27.3496L448.757 28.1671L482.395 4.46784L481.819 3.65035L481.243 2.83287L447.605 26.5322L448.181 27.3496ZM493.338 0V1H713.662V0V-1H493.338V0ZM481.819 3.65035L482.395 4.46784C485.598 2.21125 489.42 1 493.338 1V0V-1C489.008 -1 484.783 0.338746 481.243 2.83287L481.819 3.65035ZM436.662 31V32C440.992 32 445.217 30.6613 448.757 28.1671L448.181 27.3496L447.605 26.5322C444.402 28.7888 440.58 30 436.662 30V31ZM0 51H1C1 40.5066 9.50659 32 20 32V31V30C8.40202 30 -1 39.402 -1 51H0ZM20 619V618C9.50659 618 1 609.493 1 599H0H-1C-1 610.598 8.40202 620 20 620V619ZM168.975 627.488L169.792 626.912C165.859 621.325 159.453 618 152.62 618V619V620C158.803 620 164.598 623.008 168.157 628.064L168.975 627.488ZM197.313 653V652C191.13 652 185.334 648.992 181.776 643.936L180.958 644.512L180.14 645.088C184.073 650.675 190.479 654 197.313 654V653ZM1027.04 644.512L1026.22 643.936C1022.67 648.992 1016.87 652 1010.69 652V653V654C1017.52 654 1023.93 650.675 1027.86 645.088L1027.04 644.512ZM1055.38 619V618C1048.55 618 1042.14 621.325 1038.21 626.912L1039.03 627.488L1039.84 628.064C1043.4 623.008 1049.2 620 1055.38 620V619ZM1207 599H1206C1206 609.493 1197.49 618 1187 618V619V620C1198.6 620 1208 610.598 1208 599H1207ZM1187 31V32C1197.49 32 1206 40.5066 1206 51H1207H1208C1208 39.402 1198.6 30 1187 30V31ZM758.819 27.3496L758.243 28.1671C761.783 30.6613 766.008 32 770.338 32V31V30C766.42 30 762.598 28.7888 759.395 26.5322L758.819 27.3496ZM725.181 3.65035L725.757 2.83287C722.217 0.338742 717.992 -1 713.662 -1V0V1C717.58 1 721.402 2.21124 724.605 4.46783L725.181 3.65035Z" fill="white" mask="url(#path-1-inside-1_172_58)"/>
</svg>
