<svg width="289" height="291" viewBox="0 0 289 291" fill="none" xmlns="http://www.w3.org/2000/svg">
<mask id="path-1-inside-1_172_11" fill="white">
<path d="M289 252C289 258.627 283.627 264 277 264H184.712C181.098 264 177.677 265.628 175.398 268.433L160.664 286.567C158.386 289.372 154.964 291 151.351 291H12C5.37259 291 0 285.627 0 279V12C0 5.37258 5.37258 0 12 0H277C283.627 0 289 5.37258 289 12V252Z"/>
</mask>
<path d="M160.664 286.567L159.888 285.937L160.664 286.567ZM175.398 268.433L176.174 269.063L175.398 268.433ZM277 264V263H184.712V264V265H277V264ZM175.398 268.433L174.622 267.802L159.888 285.937L160.664 286.567L161.44 287.198L176.174 269.063L175.398 268.433ZM151.351 291V290H12V291V292H151.351V291ZM0 279H1V12H0H-1V279H0ZM12 0V1H277V0V-1H12V0ZM289 12H288V252H289H290V12H289ZM277 0V1C283.075 1 288 5.92487 288 12H289H290C290 4.8203 284.18 -1 277 -1V0ZM0 12H1C1 5.92487 5.92487 1 12 1V0V-1C4.8203 -1 -1 4.8203 -1 12H0ZM12 291V290C5.92487 290 1 285.075 1 279H0H-1C-1 286.18 4.8203 292 12 292V291ZM160.664 286.567L159.888 285.937C157.799 288.507 154.663 290 151.351 290V291V292C155.266 292 158.972 290.236 161.44 287.198L160.664 286.567ZM184.712 264V263C180.797 263 177.091 264.764 174.622 267.802L175.398 268.433L176.174 269.063C178.263 266.493 181.399 265 184.712 265V264ZM277 264V265C284.18 265 290 259.18 290 252H289H288C288 258.075 283.075 263 277 263V264Z" fill="white" mask="url(#path-1-inside-1_172_11)"/>
</svg>
