<svg width="1207" height="922" viewBox="0 0 1207 922" fill="none" xmlns="http://www.w3.org/2000/svg">
<mask id="path-1-inside-1_199_181" fill="white">
<path d="M1187 0C1198.05 0 1207 8.95431 1207 20V840.329C1207 845.633 1204.89 850.72 1201.14 854.471L1139.47 916.142C1135.72 919.893 1130.63 922 1125.33 922H20C8.9543 922 0 913.046 0 902V100C0 88.9543 8.95431 80 20 80H470.863C476.908 80 482.629 77.266 486.426 72.5624L538.996 7.43765C542.793 2.73401 548.514 0 554.559 0H1187Z"/>
</mask>
<path d="M538.996 7.43765L540.552 8.69389L538.996 7.43765ZM486.426 72.5624L487.982 73.8186L486.426 72.5624ZM1139.47 916.142L1138.06 914.728L1139.47 916.142ZM1201.14 854.471L1199.73 853.057V853.057L1201.14 854.471ZM1207 20H1205V840.329H1207H1209V20H1207ZM1201.14 854.471L1199.73 853.057L1138.06 914.728L1139.47 916.142L1140.89 917.556L1202.56 855.885L1201.14 854.471ZM1125.33 922V920H20V922V924H1125.33V922ZM0 902H2V100H0H-2V902H0ZM20 80V82H470.863V80V78H20V80ZM486.426 72.5624L487.982 73.8186L540.552 8.69389L538.996 7.43765L537.44 6.18142L484.87 71.3061L486.426 72.5624ZM554.558 0V2H1187V0V-2H554.558V0ZM538.996 7.43765L540.552 8.69389C543.97 4.46061 549.118 2 554.558 2V0V-2C547.909 -2 541.616 1.00742 537.44 6.18142L538.996 7.43765ZM470.863 80V82C477.513 82 483.805 78.9926 487.982 73.8186L486.426 72.5624L484.87 71.3061C481.452 75.5394 476.304 78 470.863 78V80ZM0 100H2C2 90.0589 10.0589 82 20 82V80V78C7.84973 78 -2 87.8498 -2 100H0ZM20 922V920C10.0589 920 2 911.941 2 902H0H-2C-2 914.15 7.84972 924 20 924V922ZM1139.47 916.142L1138.06 914.728C1134.68 918.104 1130.1 920 1125.33 920V922V924C1131.16 924 1136.76 921.682 1140.89 917.556L1139.47 916.142ZM1207 840.329H1205C1205 845.103 1203.1 849.681 1199.73 853.057L1201.14 854.471L1202.56 855.885C1206.68 851.76 1209 846.164 1209 840.329H1207ZM1207 20H1209C1209 7.84973 1199.15 -2 1187 -2V0V2C1196.94 2 1205 10.0589 1205 20H1207Z" fill="#00FFFF" mask="url(#path-1-inside-1_199_181)"/>
</svg>
