<svg width="1207" height="553" viewBox="0 0 1207 553" fill="none" xmlns="http://www.w3.org/2000/svg">
<mask id="path-1-inside-1_206_2" fill="white">
<path d="M1187 0C1198.05 0 1207 8.95431 1207 20V462.928C1207 468.232 1204.89 473.319 1201.14 477.07L1131.07 547.142C1127.32 550.893 1122.23 553 1116.93 553H20C8.95434 553 0 544.046 0 533V103C0 91.9543 8.95431 83 20 83H357.442C363.486 83 369.207 80.266 373.004 75.5624L427.996 7.43762C431.793 2.734 437.514 0 443.558 0H1187Z"/>
</mask>
<path d="M373.004 75.5624L371.448 74.3061L373.004 75.5624ZM1131.07 547.142L1129.66 545.728L1131.07 547.142ZM1201.14 477.07L1202.56 478.484L1201.14 477.07ZM1207 20H1205V462.928H1207H1209V20H1207ZM1201.14 477.07L1199.73 475.656L1129.66 545.728L1131.07 547.142L1132.48 548.556L1202.56 478.484L1201.14 477.07ZM1116.93 553V551H20V553V555H1116.93V553ZM0 533H2V103H0H-2V533H0ZM20 83V85H357.442V83V81H20V83ZM373.004 75.5624L374.56 76.8186L429.552 8.69386L427.996 7.43762L426.44 6.18139L371.448 74.3061L373.004 75.5624ZM443.558 0V2H1187V0V-2H443.558V0ZM427.996 7.43762L429.552 8.69386C432.97 4.4606 438.118 2 443.558 2V0V-2C436.909 -2 430.616 1.0074 426.44 6.18139L427.996 7.43762ZM357.442 83V85C364.091 85 370.384 81.9926 374.56 76.8186L373.004 75.5624L371.448 74.3061C368.03 78.5394 362.882 81 357.442 81V83ZM0 103H2C2 93.0589 10.0589 85 20 85V83V81C7.84974 81 -2 90.8497 -2 103H0ZM20 553V551C10.0589 551 2 542.941 2 533H0H-2C-2 545.15 7.84978 555 20 555V553ZM1131.07 547.142L1129.66 545.728C1126.28 549.104 1121.7 551 1116.93 551V553V555C1122.76 555 1128.36 552.682 1132.48 548.556L1131.07 547.142ZM1207 462.928H1205C1205 467.702 1203.1 472.28 1199.73 475.656L1201.14 477.07L1202.56 478.484C1206.68 474.358 1209 468.762 1209 462.928H1207ZM1207 20H1209C1209 7.84973 1199.15 -2 1187 -2V0V2C1196.94 2 1205 10.0589 1205 20H1207Z" fill="#00FFFF" mask="url(#path-1-inside-1_206_2)"/>
</svg>
