<svg width="1207" height="736" viewBox="0 0 1207 736" fill="none" xmlns="http://www.w3.org/2000/svg">
<mask id="path-1-inside-1_206_10" fill="white">
<path d="M1187 0C1198.05 0 1207 8.9543 1207 20V646.795C1207 652.099 1204.89 657.186 1201.14 660.937L1131.94 730.142C1128.19 733.893 1123.1 736 1117.79 736H20C8.95432 736 0 727.046 0 716V103C0 91.9543 8.95431 83 20 83H357.442C363.486 83 369.207 80.266 373.004 75.5624L427.996 7.43762C431.793 2.734 437.514 0 443.558 0H1187Z"/>
</mask>
<path d="M373.004 75.5624L371.448 74.3061L373.004 75.5624ZM1131.94 730.142L1130.52 728.728L1131.94 730.142ZM1201.14 660.937L1202.56 662.351L1201.14 660.937ZM1207 20H1205V646.795H1207H1209V20H1207ZM1201.14 660.937L1199.73 659.523L1130.52 728.728L1131.94 730.142L1133.35 731.556L1202.56 662.351L1201.14 660.937ZM1117.79 736V734H20V736V738H1117.79V736ZM0 716H2V103H0H-2V716H0ZM20 83V85H357.442V83V81H20V83ZM373.004 75.5624L374.56 76.8186L429.552 8.69386L427.996 7.43762L426.44 6.18139L371.448 74.3061L373.004 75.5624ZM443.558 0V2H1187V0V-2H443.558V0ZM427.996 7.43762L429.552 8.69386C432.97 4.4606 438.118 2 443.558 2V0V-2C436.909 -2 430.616 1.0074 426.44 6.18139L427.996 7.43762ZM357.442 83V85C364.091 85 370.384 81.9926 374.56 76.8186L373.004 75.5624L371.448 74.3061C368.03 78.5394 362.882 81 357.442 81V83ZM0 103H2C2 93.0589 10.0589 85 20 85V83V81C7.84974 81 -2 90.8497 -2 103H0ZM20 736V734C10.0589 734 2 725.941 2 716H0H-2C-2 728.15 7.84975 738 20 738V736ZM1131.94 730.142L1130.52 728.728C1127.15 732.104 1122.57 734 1117.79 734V736V738C1123.63 738 1129.23 735.682 1133.35 731.556L1131.94 730.142ZM1207 646.795H1205C1205 651.569 1203.1 656.147 1199.73 659.523L1201.14 660.937L1202.56 662.351C1206.68 658.225 1209 652.63 1209 646.795H1207ZM1207 20H1209C1209 7.84973 1199.15 -2 1187 -2V0V2C1196.94 2 1205 10.0589 1205 20H1207Z" fill="#00FFFF" mask="url(#path-1-inside-1_206_10)"/>
</svg>
