<svg width="32" height="32" viewBox="0 0 32 32" fill="none" xmlns="http://www.w3.org/2000/svg">
<g clip-path="url(#clip0_203_208)">
<mask id="path-1-inside-1_203_208" fill="white">
<path d="M15.8164 0C23.9989 0.00017214 30.6318 6.63392 30.6318 14.8164C30.6317 19.6541 28.3114 23.9478 24.7246 26.6514V32.0059H20.04V27.4883H18.7852V32.0059H12.9297V27.4883H11.5918V32.0059H6.90723V26.6504C3.32072 23.9467 1.0001 19.6538 1 14.8164C1 6.63382 7.63382 0 15.8164 0ZM11.29 11.3037C10.3637 11.0904 9.60005 11.0414 8.44434 11.3184L8.38965 11.3311L8.33984 11.3564C7.77998 11.6316 7.32668 11.8886 6.91895 12.2354C6.5083 12.5846 6.16565 13.0061 5.79688 13.5859L5.78223 13.6074L5.77148 13.6309C5.22186 14.7334 5.12175 15.776 5.35254 16.8838C5.58693 18.0087 6.42953 19.5073 8.22949 20.0557V20.0566C8.23627 20.0587 8.2432 20.0605 8.25 20.0625C9.42645 20.4639 11.1658 20.5468 12.2197 20.415C13.5554 20.248 14.5589 18.8221 14.5811 17.165V17.1582C14.5824 15.4784 14.4129 14.3043 13.957 13.4141C13.4895 12.5013 12.7565 11.9537 11.8076 11.4473L11.7559 11.4199L11.6982 11.4043L11.29 11.3037ZM23.2314 11.2871C22.076 11.0103 21.3119 11.0591 20.3857 11.2725L19.9775 11.373L19.9199 11.3887L19.8682 11.416C18.9195 11.9223 18.1862 12.4701 17.7188 13.3828C17.2629 14.273 17.0934 15.4473 17.0947 17.127V17.1338C17.1169 18.7906 18.1207 20.2165 19.4561 20.3838C20.5098 20.5155 22.2493 20.4325 23.4258 20.0312C23.4324 20.0293 23.4397 20.0274 23.4463 20.0254V20.0244C25.2462 19.4761 26.0888 17.9775 26.3232 16.8525C26.554 15.7447 26.454 14.7021 25.9043 13.5996L25.8936 13.5762L25.8789 13.5547C25.5101 12.9749 25.1675 12.5534 24.7568 12.2041C24.3491 11.8574 23.8957 11.6003 23.3359 11.3252L23.2861 11.2998L23.2314 11.2871Z"/>
</mask>
<path d="M15.8164 0C23.9989 0.00017214 30.6318 6.63392 30.6318 14.8164C30.6317 19.6541 28.3114 23.9478 24.7246 26.6514V32.0059H20.04V27.4883H18.7852V32.0059H12.9297V27.4883H11.5918V32.0059H6.90723V26.6504C3.32072 23.9467 1.0001 19.6538 1 14.8164C1 6.63382 7.63382 0 15.8164 0ZM11.29 11.3037C10.3637 11.0904 9.60005 11.0414 8.44434 11.3184L8.38965 11.3311L8.33984 11.3564C7.77998 11.6316 7.32668 11.8886 6.91895 12.2354C6.5083 12.5846 6.16565 13.0061 5.79688 13.5859L5.78223 13.6074L5.77148 13.6309C5.22186 14.7334 5.12175 15.776 5.35254 16.8838C5.58693 18.0087 6.42953 19.5073 8.22949 20.0557V20.0566C8.23627 20.0587 8.2432 20.0605 8.25 20.0625C9.42645 20.4639 11.1658 20.5468 12.2197 20.415C13.5554 20.248 14.5589 18.8221 14.5811 17.165V17.1582C14.5824 15.4784 14.4129 14.3043 13.957 13.4141C13.4895 12.5013 12.7565 11.9537 11.8076 11.4473L11.7559 11.4199L11.6982 11.4043L11.29 11.3037ZM23.2314 11.2871C22.076 11.0103 21.3119 11.0591 20.3857 11.2725L19.9775 11.373L19.9199 11.3887L19.8682 11.416C18.9195 11.9223 18.1862 12.4701 17.7188 13.3828C17.2629 14.273 17.0934 15.4473 17.0947 17.127V17.1338C17.1169 18.7906 18.1207 20.2165 19.4561 20.3838C20.5098 20.5155 22.2493 20.4325 23.4258 20.0312C23.4324 20.0293 23.4397 20.0274 23.4463 20.0254V20.0244C25.2462 19.4761 26.0888 17.9775 26.3232 16.8525C26.554 15.7447 26.454 14.7021 25.9043 13.5996L25.8936 13.5762L25.8789 13.5547C25.5101 12.9749 25.1675 12.5534 24.7568 12.2041C24.3491 11.8574 23.8957 11.6003 23.3359 11.3252L23.2861 11.2998L23.2314 11.2871Z" fill="#060606"/>
<path d="M15.8164 0L15.8164 -0.75H15.8164V0ZM30.6318 14.8164L31.3818 14.8164V14.8164H30.6318ZM24.7246 26.6514L24.2732 26.0525C24.0852 26.1942 23.9746 26.4159 23.9746 26.6514H24.7246ZM24.7246 32.0059V32.7559C25.1388 32.7559 25.4746 32.4201 25.4746 32.0059H24.7246ZM20.04 32.0059H19.29C19.29 32.4201 19.6258 32.7559 20.04 32.7559V32.0059ZM20.04 27.4883H20.79C20.79 27.0741 20.4543 26.7383 20.04 26.7383V27.4883ZM18.7852 27.4883V26.7383C18.3709 26.7383 18.0352 27.0741 18.0352 27.4883H18.7852ZM18.7852 32.0059V32.7559C19.1994 32.7559 19.5352 32.4201 19.5352 32.0059H18.7852ZM12.9297 32.0059H12.1797C12.1797 32.4201 12.5155 32.7559 12.9297 32.7559V32.0059ZM12.9297 27.4883H13.6797C13.6797 27.0741 13.3439 26.7383 12.9297 26.7383V27.4883ZM11.5918 27.4883V26.7383C11.1776 26.7383 10.8418 27.0741 10.8418 27.4883H11.5918ZM11.5918 32.0059V32.7559C12.006 32.7559 12.3418 32.4201 12.3418 32.0059H11.5918ZM6.90723 32.0059H6.15723C6.15723 32.4201 6.49301 32.7559 6.90723 32.7559V32.0059ZM6.90723 26.6504H7.65723C7.65723 26.415 7.54669 26.1932 7.3587 26.0515L6.90723 26.6504ZM1 14.8164H0.25V14.8164L1 14.8164ZM11.29 11.3037L11.4695 10.5754L11.4584 10.5728L11.29 11.3037ZM8.44434 11.3184L8.61394 12.049L8.6191 12.0477L8.44434 11.3184ZM8.38965 11.3311L8.22005 10.6005C8.16071 10.6143 8.10328 10.6352 8.04901 10.6629L8.38965 11.3311ZM8.33984 11.3564L8.67066 12.0296L8.68048 12.0246L8.33984 11.3564ZM6.91895 12.2354L6.43305 11.664L6.43303 11.6641L6.91895 12.2354ZM5.79688 13.5859L6.41655 14.0084C6.42105 14.0018 6.42544 13.9952 6.42973 13.9884L5.79688 13.5859ZM5.78223 13.6074L5.16256 13.1849C5.13879 13.2198 5.11801 13.2566 5.10043 13.2949L5.78223 13.6074ZM5.77148 13.6309L6.4427 13.9655C6.44635 13.9582 6.44988 13.9508 6.45328 13.9434L5.77148 13.6309ZM5.35254 16.8838L4.6183 17.0368L4.61831 17.0368L5.35254 16.8838ZM8.22949 20.0557H8.97949C8.97949 19.7256 8.76376 19.4344 8.44806 19.3382L8.22949 20.0557ZM8.22949 20.0566H7.47949C7.47949 20.3867 7.69532 20.678 8.01112 20.7741L8.22949 20.0566ZM8.25 20.0625L8.49219 19.3527C8.48321 19.3496 8.47418 19.3467 8.46509 19.344L8.25 20.0625ZM12.2197 20.415L12.3128 21.1592L12.3128 21.1592L12.2197 20.415ZM14.5811 17.165L15.3311 17.1751V17.165H14.5811ZM14.5811 17.1582L13.8311 17.1576V17.1582H14.5811ZM13.957 13.4141L14.6246 13.0722L14.6246 13.0721L13.957 13.4141ZM11.8076 11.4473L12.1607 10.7856L12.158 10.7841L11.8076 11.4473ZM11.7559 11.4199L12.1062 10.7568C12.0573 10.7309 12.0056 10.7106 11.9522 10.6961L11.7559 11.4199ZM11.6982 11.4043L11.8945 10.6804C11.8889 10.6789 11.8833 10.6775 11.8777 10.6761L11.6982 11.4043ZM23.2314 11.2871L23.0567 12.0165L23.0618 12.0177L23.2314 11.2871ZM20.3857 11.2725L20.2174 10.5415L20.2063 10.5442L20.3857 11.2725ZM19.9775 11.373L19.7981 10.6448C19.7925 10.6462 19.7868 10.6477 19.7812 10.6492L19.9775 11.373ZM19.9199 11.3887L19.7236 10.6648C19.6702 10.6793 19.6185 10.6997 19.5696 10.7255L19.9199 11.3887ZM19.8682 11.416L19.5178 10.7529L19.515 10.7544L19.8682 11.416ZM17.7188 13.3828L17.0512 13.0409L17.0512 13.041L17.7188 13.3828ZM17.0947 17.127H17.8447V17.1264L17.0947 17.127ZM17.0947 17.1338H16.3447L16.3448 17.1438L17.0947 17.1338ZM19.4561 20.3838L19.3628 21.128L19.363 21.128L19.4561 20.3838ZM23.4258 20.0312L23.2107 19.3128C23.2016 19.3155 23.1926 19.3184 23.1837 19.3214L23.4258 20.0312ZM23.4463 20.0254L23.6632 20.7433C23.9797 20.6477 24.1963 20.356 24.1963 20.0254H23.4463ZM23.4463 20.0244L23.2277 19.307C22.912 19.4031 22.6963 19.6944 22.6963 20.0244H23.4463ZM26.3232 16.8525L27.0575 17.0056L27.0575 17.0055L26.3232 16.8525ZM25.9043 13.5996L25.2225 13.9121C25.2259 13.9195 25.2294 13.9269 25.2331 13.9342L25.9043 13.5996ZM25.8936 13.5762L26.5754 13.2637C26.5578 13.2253 26.537 13.1885 26.5132 13.1537L25.8936 13.5762ZM25.8789 13.5547L25.2461 13.9572C25.2503 13.9639 25.2547 13.9706 25.2592 13.9772L25.8789 13.5547ZM24.7568 12.2041L25.2427 11.6328L25.2427 11.6328L24.7568 12.2041ZM23.3359 11.3252L22.9953 11.9934L23.0052 11.9983L23.3359 11.3252ZM23.2861 11.2998L23.6268 10.6316C23.5725 10.604 23.5151 10.583 23.4557 10.5692L23.2861 11.2998ZM15.8164 0L15.8164 0.75C23.5846 0.750163 29.8818 7.04809 29.8818 14.8164H30.6318H31.3818C31.3818 6.21976 24.4131 -0.749819 15.8164 -0.75L15.8164 0ZM30.6318 14.8164L29.8818 14.8164C29.8817 19.4085 27.6803 23.4843 24.2732 26.0525L24.7246 26.6514L25.1761 27.2503C28.9425 24.4113 31.3817 19.8998 31.3818 14.8164L30.6318 14.8164ZM24.7246 26.6514H23.9746V32.0059H24.7246H25.4746V26.6514H24.7246ZM24.7246 32.0059V31.2559H20.04V32.0059V32.7559H24.7246V32.0059ZM20.04 32.0059H20.79V27.4883H20.04H19.29V32.0059H20.04ZM20.04 27.4883V26.7383H18.7852V27.4883V28.2383H20.04V27.4883ZM18.7852 27.4883H18.0352V32.0059H18.7852H19.5352V27.4883H18.7852ZM18.7852 32.0059V31.2559H12.9297V32.0059V32.7559H18.7852V32.0059ZM12.9297 32.0059H13.6797V27.4883H12.9297H12.1797V32.0059H12.9297ZM12.9297 27.4883V26.7383H11.5918V27.4883V28.2383H12.9297V27.4883ZM11.5918 27.4883H10.8418V32.0059H11.5918H12.3418V27.4883H11.5918ZM11.5918 32.0059V31.2559H6.90723V32.0059V32.7559H11.5918V32.0059ZM6.90723 32.0059H7.65723V26.6504H6.90723H6.15723V32.0059H6.90723ZM6.90723 26.6504L7.3587 26.0515C3.95177 23.4832 1.7501 19.4081 1.75 14.8164L1 14.8164L0.25 14.8164C0.250107 19.8996 2.68967 24.4103 6.45576 27.2493L6.90723 26.6504ZM1 14.8164H1.75C1.75 7.04803 8.04803 0.75 15.8164 0.75V0V-0.75C7.2196 -0.75 0.250003 6.2196 0.25 14.8164H1ZM11.29 11.3037L11.4584 10.5728C10.4335 10.3368 9.55148 10.2818 8.26957 10.589L8.44434 11.3184L8.6191 12.0477C9.64862 11.801 10.294 11.844 11.1217 12.0346L11.29 11.3037ZM8.44434 11.3184L8.27474 10.5878L8.22005 10.6005L8.38965 11.3311L8.55925 12.0616L8.61393 12.0489L8.44434 11.3184ZM8.38965 11.3311L8.04901 10.6629L7.9992 10.6883L8.33984 11.3564L8.68048 12.0246L8.73029 11.9992L8.38965 11.3311ZM8.33984 11.3564L8.00906 10.6833C7.4306 10.9676 6.91165 11.257 6.43305 11.664L6.91895 12.2354L7.40484 12.8067C7.74171 12.5202 8.12936 12.2955 8.67062 12.0296L8.33984 11.3564ZM6.91895 12.2354L6.43303 11.6641C5.94726 12.0772 5.55806 12.5639 5.16402 13.1835L5.79688 13.5859L6.42973 13.9884C6.77325 13.4483 7.06934 13.092 7.40486 12.8067L6.91895 12.2354ZM5.79688 13.5859L5.1772 13.1634L5.16256 13.1849L5.78223 13.6074L6.4019 14.0299L6.41655 14.0084L5.79688 13.5859ZM5.78223 13.6074L5.10043 13.2949L5.08969 13.3184L5.77148 13.6309L6.45328 13.9434L6.46403 13.9199L5.78223 13.6074ZM5.77148 13.6309L5.10027 13.2962C4.47158 14.5573 4.35495 15.7726 4.6183 17.0368L5.35254 16.8838L6.08678 16.7308C5.88855 15.7793 5.97213 14.9094 6.4427 13.9655L5.77148 13.6309ZM5.35254 16.8838L4.61831 17.0368C4.89163 18.3485 5.87795 20.1233 8.01093 20.7731L8.22949 20.0557L8.44806 19.3382C6.98111 18.8913 6.28223 17.6689 6.08677 16.7308L5.35254 16.8838ZM8.22949 20.0557H7.47949V20.0566H8.22949H8.97949V20.0557H8.22949ZM8.22949 20.0566L8.01112 20.7741C8.01833 20.7763 8.02454 20.7781 8.02908 20.7794C8.03345 20.7807 8.03733 20.7818 8.03904 20.7822C8.04144 20.7829 8.04125 20.7828 8.04099 20.7828C8.04042 20.7826 8.03815 20.782 8.03491 20.781L8.25 20.0625L8.46509 19.344C8.45845 19.342 8.45276 19.3404 8.44877 19.3393C8.44508 19.3382 8.44146 19.3372 8.44044 19.3369C8.43871 19.3365 8.43916 19.3366 8.44012 19.3368C8.44124 19.3372 8.44404 19.338 8.44786 19.3391L8.22949 20.0566ZM8.25 20.0625L8.00781 20.7723C9.31586 21.2186 11.174 21.3016 12.3128 21.1592L12.2197 20.415L12.1267 19.6708C11.1576 19.792 9.53703 19.7092 8.49219 19.3527L8.25 20.0625ZM12.2197 20.415L12.3128 21.1592C14.1508 20.9294 15.3058 19.0575 15.331 17.1751L14.5811 17.165L13.8311 17.155C13.812 18.5867 12.9599 19.5666 12.1267 19.6708L12.2197 20.415ZM14.5811 17.165H15.3311V17.1582H14.5811H13.8311V17.165H14.5811ZM14.5811 17.1582L15.3311 17.1588C15.3324 15.4507 15.1649 14.1272 14.6246 13.0722L13.957 13.4141L13.2895 13.7559C13.661 14.4814 13.8323 15.5061 13.8311 17.1576L14.5811 17.1582ZM13.957 13.4141L14.6246 13.0721C14.0552 11.9606 13.1653 11.3217 12.1607 10.7856L11.8076 11.4473L11.4545 12.1089C12.3477 12.5856 12.9238 13.0419 13.2895 13.756L13.957 13.4141ZM11.8076 11.4473L12.158 10.7841L12.1062 10.7568L11.7559 11.4199L11.4055 12.0831L11.4573 12.1104L11.8076 11.4473ZM11.7559 11.4199L11.9522 10.6961L11.8945 10.6804L11.6982 11.4043L11.5019 12.1282L11.5596 12.1438L11.7559 11.4199ZM11.6982 11.4043L11.8777 10.6761L11.4695 10.5755L11.29 11.3037L11.1106 12.0319L11.5188 12.1325L11.6982 11.4043ZM23.2314 11.2871L23.4062 10.5577C22.1245 10.2507 21.2423 10.3056 20.2174 10.5416L20.3857 11.2725L20.5541 12.0033C21.3816 11.8127 22.0274 11.7699 23.0567 12.0165L23.2314 11.2871ZM20.3857 11.2725L20.2063 10.5442L19.7981 10.6448L19.9775 11.373L20.157 12.1013L20.5652 12.0007L20.3857 11.2725ZM19.9775 11.373L19.7812 10.6492L19.7236 10.6648L19.9199 11.3887L20.1162 12.1125L20.1738 12.0969L19.9775 11.373ZM19.9199 11.3887L19.5696 10.7255L19.5178 10.7529L19.8682 11.416L20.2185 12.0792L20.2703 12.0518L19.9199 11.3887ZM19.8682 11.416L19.515 10.7544C18.5107 11.2904 17.6205 11.9295 17.0512 13.0409L17.7188 13.3828L18.3863 13.7247C18.752 13.0108 19.3282 12.5543 20.2213 12.0777L19.8682 11.416ZM17.7188 13.3828L17.0512 13.041C16.511 14.0959 16.3434 15.4196 16.3447 17.1275L17.0947 17.127L17.8447 17.1264C17.8434 15.475 18.0149 14.4501 18.3863 13.7246L17.7188 13.3828ZM17.0947 17.127H16.3447V17.1338H17.0947H17.8447V17.127H17.0947ZM17.0947 17.1338L16.3448 17.1438C16.37 19.0261 17.5253 20.8978 19.3628 21.128L19.4561 20.3838L19.5493 19.6396C18.716 19.5352 17.8639 18.5551 17.8447 17.1237L17.0947 17.1338ZM19.4561 20.3838L19.363 21.128C20.5017 21.2703 22.3599 21.1872 23.6679 20.7411L23.4258 20.0312L23.1837 19.3214C22.1387 19.6778 20.518 19.7607 19.5491 19.6396L19.4561 20.3838ZM23.4258 20.0312L23.6409 20.7497C23.6378 20.7507 23.6356 20.7513 23.6352 20.7514C23.635 20.7514 23.635 20.7514 23.6373 20.7508C23.6389 20.7504 23.6425 20.7494 23.6465 20.7482C23.6506 20.7471 23.6565 20.7454 23.6632 20.7433L23.4463 20.0254L23.2294 19.3074C23.2328 19.3064 23.2352 19.3057 23.236 19.3055C23.2365 19.3053 23.2367 19.3053 23.2348 19.3058C23.2336 19.3062 23.2301 19.3071 23.2265 19.3082C23.2226 19.3092 23.2171 19.3108 23.2107 19.3128L23.4258 20.0312ZM23.4463 20.0254H24.1963V20.0244H23.4463H22.6963V20.0254H23.4463ZM23.4463 20.0244L23.6649 20.7419C25.7977 20.0921 26.7841 18.3173 27.0575 17.0056L26.3232 16.8525L25.589 16.6995C25.3935 17.6377 24.6946 18.8601 23.2277 19.307L23.4463 20.0244ZM26.3232 16.8525L27.0575 17.0055C27.3208 15.7414 27.2042 14.5261 26.5755 13.265L25.9043 13.5996L25.2331 13.9342C25.7037 14.8782 25.7872 15.748 25.589 16.6996L26.3232 16.8525ZM25.9043 13.5996L26.5861 13.2871L26.5754 13.2637L25.8936 13.5762L25.2118 13.8887L25.2225 13.9121L25.9043 13.5996ZM25.8936 13.5762L26.5132 13.1537L26.4986 13.1322L25.8789 13.5547L25.2592 13.9772L25.2739 13.9987L25.8936 13.5762ZM25.8789 13.5547L26.5118 13.1522C26.1177 12.5327 25.7285 12.046 25.2427 11.6328L24.7568 12.2041L24.2709 12.7754C24.6064 13.0608 24.9025 13.4171 25.2461 13.9572L25.8789 13.5547ZM24.7568 12.2041L25.2427 11.6328C24.7642 11.2258 24.2451 10.9363 23.6667 10.6521L23.3359 11.3252L23.0052 11.9983C23.5463 12.2642 23.9341 12.489 24.271 12.7754L24.7568 12.2041ZM23.3359 11.3252L23.6766 10.657L23.6268 10.6316L23.2861 11.2998L22.9455 11.968L22.9953 11.9934L23.3359 11.3252ZM23.2861 11.2998L23.4557 10.5692L23.401 10.5565L23.2314 11.2871L23.0618 12.0177L23.1165 12.0304L23.2861 11.2998Z" fill="#00FFFF" mask="url(#path-1-inside-1_203_208)"/>
</g>
<defs>
<clipPath id="clip0_203_208">
<rect width="32" height="32" fill="white"/>
</clipPath>
</defs>
</svg>
