<svg width="32" height="32" viewBox="0 0 32 32" fill="none" xmlns="http://www.w3.org/2000/svg">
<g clip-path="url(#clip0_192_165)">
<rect width="32" height="32" rx="10" fill="#060606"/>
<g filter="url(#filter0_d_192_165)">
<mask id="path-2-inside-1_192_165" fill="white">
<path d="M15.8164 2.00586C22.9732 2.00605 28.7754 7.80801 28.7754 14.9648C28.7754 19.1962 26.7456 22.9516 23.6084 25.3164V30H19.5107V26.0488H18.4131V30H13.292V26.0488H12.1211V30H8.02441V25.3154C4.88724 22.9507 2.85742 19.1961 2.85742 14.9648C2.85744 7.80791 8.65947 2.00588 15.8164 2.00586ZM12.2305 11.9209C11.2404 11.6623 10.5215 11.5649 9.35352 11.8447L9.2998 11.8584L9.25 11.8828C8.75885 12.1242 8.35662 12.352 7.99414 12.6602C7.62885 12.9709 7.32456 13.3452 7 13.8555L6.98633 13.877L6.97461 13.9004C6.48743 14.8778 6.39902 15.8043 6.60352 16.7861C6.81178 17.7852 7.55993 19.1178 9.16016 19.6064V19.6084C10.2005 19.9684 11.7447 20.0405 12.6787 19.9238C13.8882 19.7722 14.7791 18.4888 14.7988 17.0205V17.0137C14.8 15.5425 14.6516 14.5032 14.2461 13.7109C13.8287 12.8959 13.1744 12.4083 12.3398 11.9629L12.2881 11.9355L12.2305 11.9209ZM22.3174 11.8174C21.1495 11.5376 20.4304 11.635 19.4404 11.8936L19.3828 11.9082L19.3311 11.9355C18.4966 12.3809 17.8422 12.8687 17.4248 13.6836C17.0193 14.4759 16.8709 15.5153 16.8721 16.9863V16.9932C16.8919 18.4614 17.7828 19.7448 18.9922 19.8965C19.9261 20.0132 21.4705 19.941 22.5107 19.5811V19.5791C24.1107 19.0904 24.8591 17.7578 25.0674 16.7588C25.2719 15.777 25.1835 14.8504 24.6963 13.873L24.6846 13.8496L24.6709 13.8281C24.3463 13.3177 24.0421 12.9436 23.6768 12.6328C23.3142 12.3245 22.9121 12.0969 22.4209 11.8555L22.3711 11.8311L22.3174 11.8174Z"/>
</mask>
<path d="M15.8164 2.00586L15.8164 1.25586H15.8164L15.8164 2.00586ZM28.7754 14.9648H29.5254V14.9648L28.7754 14.9648ZM23.6084 25.3164L23.1569 24.7175C22.9689 24.8592 22.8584 25.081 22.8584 25.3164H23.6084ZM23.6084 30V30.75C24.0226 30.75 24.3584 30.4142 24.3584 30H23.6084ZM19.5107 30H18.7607C18.7607 30.4142 19.0965 30.75 19.5107 30.75V30ZM19.5107 26.0488H20.2607C20.2607 25.6346 19.925 25.2988 19.5107 25.2988V26.0488ZM18.4131 26.0488V25.2988C17.9989 25.2988 17.6631 25.6346 17.6631 26.0488H18.4131ZM18.4131 30V30.75C18.8273 30.75 19.1631 30.4142 19.1631 30H18.4131ZM13.292 30H12.542C12.542 30.4142 12.8778 30.75 13.292 30.75V30ZM13.292 26.0488H14.042C14.042 25.6346 13.7062 25.2988 13.292 25.2988V26.0488ZM12.1211 26.0488V25.2988C11.7069 25.2988 11.3711 25.6346 11.3711 26.0488H12.1211ZM12.1211 30V30.75C12.5353 30.75 12.8711 30.4142 12.8711 30H12.1211ZM8.02441 30H7.27441C7.27441 30.4142 7.6102 30.75 8.02441 30.75V30ZM8.02441 25.3154H8.77441C8.77441 25.08 8.66387 24.8582 8.47586 24.7165L8.02441 25.3154ZM2.85742 14.9648L2.10742 14.9648V14.9648H2.85742ZM12.2305 11.9209L12.0409 12.6466L12.0457 12.6478L12.2305 11.9209ZM9.35352 11.8447L9.17875 11.1153L9.16851 11.1179L9.35352 11.8447ZM9.2998 11.8584L9.1148 11.1316C9.06472 11.1443 9.01609 11.1622 8.96969 11.185L9.2998 11.8584ZM9.25 11.8828L8.91988 11.2094L8.91923 11.2097L9.25 11.8828ZM7.99414 12.6602L7.50833 12.0888L7.50818 12.0889L7.99414 12.6602ZM7 13.8555L7.63275 14.2581L7.63285 14.258L7 13.8555ZM6.98633 13.877L6.35358 13.4743C6.33974 13.496 6.32704 13.5185 6.31551 13.5415L6.98633 13.877ZM6.97461 13.9004L6.30379 13.565L6.30337 13.5658L6.97461 13.9004ZM6.60352 16.7861L5.86927 16.9391L5.8693 16.9392L6.60352 16.7861ZM9.16016 19.6064H9.91016C9.91016 19.2766 9.69465 18.9855 9.37918 18.8891L9.16016 19.6064ZM9.16016 19.6084H8.41016C8.41016 19.9281 8.61278 20.2126 8.91488 20.3172L9.16016 19.6084ZM12.6787 19.9238L12.7717 20.668L12.772 20.668L12.6787 19.9238ZM14.7988 17.0205L15.5488 17.0306V17.0205H14.7988ZM14.7988 17.0137L14.0488 17.0131V17.0137H14.7988ZM14.2461 13.7109L14.9137 13.3692L14.9136 13.3691L14.2461 13.7109ZM12.3398 11.9629L12.693 11.3012L12.6902 11.2997L12.3398 11.9629ZM12.2881 11.9355L12.6384 11.2724C12.586 11.2447 12.5304 11.2233 12.4729 11.2087L12.2881 11.9355ZM22.3174 11.8174L22.5024 11.0905L22.4921 11.088L22.3174 11.8174ZM19.4404 11.8936L19.6252 12.6204L19.63 12.6192L19.4404 11.8936ZM19.3828 11.9082L19.198 11.1813C19.1405 11.1959 19.0849 11.2173 19.0325 11.2451L19.3828 11.9082ZM19.3311 11.9355L18.9807 11.2724L18.9779 11.2739L19.3311 11.9355ZM17.4248 13.6836L16.7573 13.3417L16.7572 13.3419L17.4248 13.6836ZM16.8721 16.9863H17.6221V16.9857L16.8721 16.9863ZM16.8721 16.9932H16.122L16.1221 17.0033L16.8721 16.9932ZM18.9922 19.8965L18.8989 20.6407L18.8992 20.6407L18.9922 19.8965ZM22.5107 19.5811L22.756 20.2898C23.0581 20.1853 23.2607 19.9007 23.2607 19.5811H22.5107ZM22.5107 19.5791L22.2917 18.8618C21.9762 18.9582 21.7607 19.2493 21.7607 19.5791H22.5107ZM25.0674 16.7588L25.8016 16.9119L25.8016 16.9117L25.0674 16.7588ZM24.6963 13.873L25.3675 13.5385L25.3671 13.5376L24.6963 13.873ZM24.6846 13.8496L25.3554 13.5142C25.3439 13.4911 25.3312 13.4687 25.3173 13.447L24.6846 13.8496ZM24.6709 13.8281L24.038 14.2306L24.0382 14.2308L24.6709 13.8281ZM23.6768 12.6328L24.1627 12.0615L24.1626 12.0615L23.6768 12.6328ZM22.4209 11.8555L22.7517 11.1823L22.751 11.182L22.4209 11.8555ZM22.3711 11.8311L22.7012 11.1576C22.6548 11.1349 22.6062 11.117 22.5561 11.1042L22.3711 11.8311ZM15.8164 2.00586L15.8164 2.75586C22.559 2.75604 28.0254 8.22225 28.0254 14.9648L28.7754 14.9648L29.5254 14.9648C29.5254 7.39378 23.3874 1.25606 15.8164 1.25586L15.8164 2.00586ZM28.7754 14.9648H28.0254C28.0254 18.9504 26.1145 22.4881 23.1569 24.7175L23.6084 25.3164L24.0598 25.9153C27.3767 23.4152 29.5254 19.4419 29.5254 14.9648H28.7754ZM23.6084 25.3164H22.8584V30H23.6084H24.3584V25.3164H23.6084ZM23.6084 30V29.25H19.5107V30V30.75H23.6084V30ZM19.5107 30H20.2607V26.0488H19.5107H18.7607V30H19.5107ZM19.5107 26.0488V25.2988H18.4131V26.0488V26.7988H19.5107V26.0488ZM18.4131 26.0488H17.6631V30H18.4131H19.1631V26.0488H18.4131ZM18.4131 30V29.25H13.292V30V30.75H18.4131V30ZM13.292 30H14.042V26.0488H13.292H12.542V30H13.292ZM13.292 26.0488V25.2988H12.1211V26.0488V26.7988H13.292V26.0488ZM12.1211 26.0488H11.3711V30H12.1211H12.8711V26.0488H12.1211ZM12.1211 30V29.25H8.02441V30V30.75H12.1211V30ZM8.02441 30H8.77441V25.3154H8.02441H7.27441V30H8.02441ZM8.02441 25.3154L8.47586 24.7165C5.51827 22.4871 3.60742 18.9503 3.60742 14.9648H2.85742H2.10742C2.10742 19.4419 4.25622 23.4142 7.57297 25.9143L8.02441 25.3154ZM2.85742 14.9648L3.60742 14.9648C3.60744 8.22212 9.07369 2.75588 15.8164 2.75586L15.8164 2.00586L15.8164 1.25586C8.24526 1.25588 2.10744 7.3937 2.10742 14.9648L2.85742 14.9648ZM12.2305 11.9209L12.42 11.1952C11.3515 10.9161 10.5019 10.7984 9.17877 11.1154L9.35352 11.8447L9.52826 12.5741C10.5411 12.3314 11.1293 12.4084 12.0409 12.6466L12.2305 11.9209ZM9.35352 11.8447L9.16851 11.1179L9.1148 11.1316L9.2998 11.8584L9.48481 12.5852L9.53853 12.5715L9.35352 11.8447ZM9.2998 11.8584L8.96969 11.185L8.91988 11.2094L9.25 11.8828L9.58012 12.5563L9.62992 12.5318L9.2998 11.8584ZM9.25 11.8828L8.91923 11.2097C8.40931 11.4603 7.94157 11.7204 7.50833 12.0888L7.99414 12.6602L8.47996 13.2315C8.77168 12.9835 9.10838 12.7881 9.58077 12.5559L9.25 11.8828ZM7.99414 12.6602L7.50818 12.0889C7.06806 12.4633 6.71723 12.9025 6.36715 13.453L7 13.8555L7.63285 14.258C7.93189 13.7878 8.18963 13.4785 8.4801 13.2314L7.99414 12.6602ZM7 13.8555L6.36725 13.4528L6.35358 13.4743L6.98633 13.877L7.61907 14.2796L7.63275 14.2581L7 13.8555ZM6.98633 13.877L6.31551 13.5415L6.30379 13.565L6.97461 13.9004L7.64543 14.2358L7.65715 14.2124L6.98633 13.877ZM6.97461 13.9004L6.30337 13.5658C5.73702 14.702 5.63229 15.8013 5.86927 16.9391L6.60352 16.7861L7.33776 16.6332C7.16575 15.8073 7.23783 15.0535 7.64584 14.235L6.97461 13.9004ZM6.60352 16.7861L5.8693 16.9392C6.11645 18.1248 7.00805 19.7335 8.94113 20.3238L9.16016 19.6064L9.37918 18.8891C8.1118 18.5021 7.50712 17.4456 7.33773 16.6331L6.60352 16.7861ZM9.16016 19.6064H8.41016V19.6084H9.16016H9.91016V19.6064H9.16016ZM9.16016 19.6084L8.91488 20.3172C10.0893 20.7236 11.754 20.7952 12.7717 20.668L12.6787 19.9238L12.5857 19.1796C11.7355 19.2859 10.3116 19.2132 9.40543 18.8996L9.16016 19.6084ZM12.6787 19.9238L12.772 20.668C14.4839 20.4534 15.526 18.7239 15.5488 17.0306L14.7988 17.0205L14.0489 17.0104C14.0322 18.2537 13.2924 19.091 12.5854 19.1797L12.6787 19.9238ZM14.7988 17.0205H15.5488V17.0137H14.7988H14.0488V17.0205H14.7988ZM14.7988 17.0137L15.5488 17.0143C15.55 15.5146 15.4035 14.3261 14.9137 13.3692L14.2461 13.7109L13.5785 14.0527C13.8998 14.6804 14.0499 15.5705 14.0488 17.0131L14.7988 17.0137ZM14.2461 13.7109L14.9136 13.3691C14.3946 12.3556 13.5837 11.7766 12.693 11.3012L12.3398 11.9629L11.9867 12.6246C12.7651 13.04 13.2628 13.4363 13.5786 14.0528L14.2461 13.7109ZM12.3398 11.9629L12.6902 11.2997L12.6384 11.2724L12.2881 11.9355L11.9377 12.5987L11.9895 12.626L12.3398 11.9629ZM12.2881 11.9355L12.4729 11.2087L12.4153 11.194L12.2305 11.9209L12.0457 12.6478L12.1033 12.6624L12.2881 11.9355ZM22.3174 11.8174L22.4921 11.088C21.1691 10.771 20.3193 10.8888 19.2509 11.1679L19.4404 11.8936L19.63 12.6192C20.5415 12.3811 21.1299 12.3041 22.1426 12.5467L22.3174 11.8174ZM19.4404 11.8936L19.2556 11.1667L19.198 11.1813L19.3828 11.9082L19.5676 12.6351L19.6252 12.6204L19.4404 11.8936ZM19.3828 11.9082L19.0325 11.2451L18.9807 11.2724L19.3311 11.9355L19.6814 12.5987L19.7332 12.5713L19.3828 11.9082ZM19.3311 11.9355L18.9779 11.2739C18.0873 11.7492 17.2763 12.3284 16.7573 13.3417L17.4248 13.6836L18.0923 14.0255C18.4081 13.4091 18.9059 13.0126 19.6842 12.5972L19.3311 11.9355ZM17.4248 13.6836L16.7572 13.3419C16.2675 14.2987 16.1209 15.4873 16.1221 16.9869L16.8721 16.9863L17.6221 16.9857C17.621 15.5432 17.7712 14.653 18.0925 14.0253L17.4248 13.6836ZM16.8721 16.9863H16.1221V16.9932H16.8721H17.6221V16.9863H16.8721ZM16.8721 16.9932L16.1221 17.0033C16.145 18.6965 17.1871 20.426 18.8989 20.6407L18.9922 19.8965L19.0855 19.1523C18.3785 19.0637 17.6388 18.2263 17.622 16.9831L16.8721 16.9932ZM18.9922 19.8965L18.8992 20.6407C19.9169 20.7678 21.5817 20.6961 22.756 20.2898L22.5107 19.5811L22.2655 18.8723C21.3594 19.1858 19.9354 19.2585 19.0852 19.1523L18.9922 19.8965ZM22.5107 19.5811H23.2607V19.5791H22.5107H21.7607V19.5811H22.5107ZM22.5107 19.5791L22.7298 20.2964C24.6625 19.7061 25.5544 18.0974 25.8016 16.9119L25.0674 16.7588L24.3332 16.6057C24.1638 17.4181 23.5588 18.4748 22.2917 18.8618L22.5107 19.5791ZM25.0674 16.7588L25.8016 16.9117C26.0386 15.774 25.9339 14.6747 25.3675 13.5385L24.6963 13.873L24.0251 14.2076C24.4331 15.0261 24.5051 15.78 24.3331 16.6059L25.0674 16.7588ZM24.6963 13.873L25.3671 13.5376L25.3554 13.5142L24.6846 13.8496L24.0138 14.185L24.0255 14.2085L24.6963 13.873ZM24.6846 13.8496L25.3173 13.447L25.3036 13.4255L24.6709 13.8281L24.0382 14.2308L24.0518 14.2523L24.6846 13.8496ZM24.6709 13.8281L25.3038 13.4256C24.9536 12.8751 24.6029 12.436 24.1627 12.0615L23.6768 12.6328L23.1908 13.2041C23.4813 13.4512 23.739 13.7603 24.038 14.2306L24.6709 13.8281ZM23.6768 12.6328L24.1626 12.0615C23.7293 11.693 23.2616 11.4329 22.7517 11.1824L22.4209 11.8555L22.0901 12.5286C22.5626 12.7608 22.8992 12.9561 23.1909 13.2042L23.6768 12.6328ZM22.4209 11.8555L22.751 11.182L22.7012 11.1576L22.3711 11.8311L22.041 12.5045L22.0908 12.5289L22.4209 11.8555ZM22.3711 11.8311L22.5561 11.1042L22.5024 11.0906L22.3174 11.8174L22.1324 12.5442L22.1861 12.5579L22.3711 11.8311Z" fill="#00FFFF" mask="url(#path-2-inside-1_192_165)"/>
</g>
</g>
<defs>
<filter id="filter0_d_192_165" x="0.157422" y="-0.694141" width="31.318" height="33.3941" filterUnits="userSpaceOnUse" color-interpolation-filters="sRGB">
<feFlood flood-opacity="0" result="BackgroundImageFix"/>
<feColorMatrix in="SourceAlpha" type="matrix" values="0 0 0 0 0 0 0 0 0 0 0 0 0 0 0 0 0 0 127 0" result="hardAlpha"/>
<feOffset/>
<feGaussianBlur stdDeviation="1.35"/>
<feComposite in2="hardAlpha" operator="out"/>
<feColorMatrix type="matrix" values="0 0 0 0 0 0 0 0 0 1 0 0 0 0 1 0 0 0 1 0"/>
<feBlend mode="normal" in2="BackgroundImageFix" result="effect1_dropShadow_192_165"/>
<feBlend mode="normal" in="SourceGraphic" in2="effect1_dropShadow_192_165" result="shape"/>
</filter>
<clipPath id="clip0_192_165">
<rect width="32" height="32" fill="white"/>
</clipPath>
</defs>
</svg>
