<svg width="72" height="78" viewBox="0 0 72 78" fill="none" xmlns="http://www.w3.org/2000/svg">
<mask id="path-1-inside-1_169_658" fill="white">
<path d="M36 0C55.8822 0 71.9999 16.1178 72 36C72 47.7561 66.3632 58.1931 57.6465 64.7627V77.7686H46.2646V66.793H43.2158V77.7686H28.9883V66.793H25.7363V77.7686H14.3535V64.7617C5.637 58.1923 0 47.7558 0 36C0.000105142 16.1179 16.1179 0.000105148 36 0ZM25.8145 28.4023C23.1573 27.7083 21.3162 27.4628 18.2549 28.1963L18.2012 28.21L18.1514 28.2344C16.8084 28.8943 15.7692 29.4891 14.8457 30.2744C13.9194 31.0622 13.1306 32.0238 12.2588 33.3945L12.2441 33.416L12.2334 33.4395C10.9734 35.9669 10.7467 38.335 11.2764 40.8779C11.8106 43.4423 13.7321 46.8392 17.8213 48.0635C20.5528 49.0031 24.6837 49.2056 27.1729 48.8945C29.9436 48.5479 32.2354 45.5033 32.2861 41.6973V41.6914C32.2893 37.6364 31.8742 34.9263 30.8467 32.9199C29.8075 30.891 28.1762 29.6474 25.9238 28.4453L25.8721 28.417L25.8145 28.4023ZM53.8535 28.1201C50.7919 27.3865 48.9511 27.6321 46.2939 28.3262L46.2363 28.3408L46.1846 28.3691C43.9321 29.5712 42.3009 30.8149 41.2617 32.8438C40.2341 34.8501 39.819 37.5602 39.8223 41.6152V41.6211C39.873 45.4274 42.1646 48.472 44.9355 48.8184C47.4248 49.1294 51.5556 48.927 54.2871 47.9873C58.3762 46.763 60.2978 43.3661 60.832 40.8018C61.3617 38.2589 61.135 35.8907 59.875 33.3633L59.8643 33.3398L59.8496 33.3184C58.9777 31.9475 58.189 30.9861 57.2627 30.1982C56.3392 29.4128 55.3001 28.8182 53.957 28.1582L53.9072 28.1338L53.8535 28.1201Z"/>
</mask>
<path d="M36 0V-2H36L36 0ZM72 36H74V36L72 36ZM57.6465 64.7627L56.4427 63.1655C55.9413 63.5434 55.6465 64.1348 55.6465 64.7627H57.6465ZM57.6465 77.7686V79.7686C58.7511 79.7686 59.6465 78.8731 59.6465 77.7686H57.6465ZM46.2646 77.7686H44.2646C44.2646 78.8731 45.1601 79.7686 46.2646 79.7686V77.7686ZM46.2646 66.793H48.2646C48.2646 65.6884 47.3692 64.793 46.2646 64.793V66.793ZM43.2158 66.793V64.793C42.1113 64.793 41.2158 65.6884 41.2158 66.793H43.2158ZM43.2158 77.7686V79.7686C44.3204 79.7686 45.2158 78.8731 45.2158 77.7686H43.2158ZM28.9883 77.7686H26.9883C26.9883 78.8731 27.8837 79.7686 28.9883 79.7686V77.7686ZM28.9883 66.793H30.9883C30.9883 65.6884 30.0929 64.793 28.9883 64.793V66.793ZM25.7363 66.793V64.793C24.6318 64.793 23.7363 65.6884 23.7363 66.793H25.7363ZM25.7363 77.7686V79.7686C26.8409 79.7686 27.7363 78.8731 27.7363 77.7686H25.7363ZM14.3535 77.7686H12.3535C12.3535 78.8731 13.2489 79.7686 14.3535 79.7686V77.7686ZM14.3535 64.7617H16.3535C16.3535 64.1339 16.0587 63.5424 15.5573 63.1645L14.3535 64.7617ZM0 36L-2 36V36H0ZM25.8145 28.4023L25.309 30.3375L25.3217 30.3407L25.8145 28.4023ZM18.2549 28.1963L17.7889 26.2513C17.7797 26.2535 17.7706 26.2558 17.7615 26.2581L18.2549 28.1963ZM18.2012 28.21L17.7078 26.2718C17.5743 26.3058 17.4446 26.3535 17.3209 26.4141L18.2012 28.21ZM18.1514 28.2344L17.2711 26.4385L17.2693 26.4394L18.1514 28.2344ZM14.8457 30.2744L13.55 28.7509L13.5499 28.7509L14.8457 30.2744ZM12.2588 33.3945L13.9112 34.5212C13.9232 34.5036 13.935 34.4858 13.9464 34.4678L12.2588 33.3945ZM12.2441 33.416L10.5917 32.2893C10.5283 32.3823 10.4729 32.4804 10.426 32.5827L12.2441 33.416ZM12.2334 33.4395L14.0233 34.3318C14.033 34.3123 14.0424 34.2926 14.0515 34.2728L12.2334 33.4395ZM11.2764 40.8779L9.31839 41.2858L9.31841 41.2858L11.2764 40.8779ZM17.8213 48.0635L18.4718 46.1722C18.4464 46.1635 18.4207 46.1552 18.3949 46.1475L17.8213 48.0635ZM27.1729 48.8945L27.4208 50.8791L27.4211 50.8791L27.1729 48.8945ZM32.2861 41.6973L34.286 41.7239C34.2861 41.715 34.2861 41.7062 34.2861 41.6973H32.2861ZM32.2861 41.6914L30.2861 41.6898V41.6914H32.2861ZM30.8467 32.9199L32.6268 32.0082L32.6268 32.0082L30.8467 32.9199ZM25.9238 28.4453L24.9638 30.1998C24.9699 30.2032 24.976 30.2065 24.9822 30.2098L25.9238 28.4453ZM25.8721 28.417L26.8321 26.6625C26.6847 26.5818 26.5277 26.5201 26.3649 26.4787L25.8721 28.417ZM53.8535 28.1201L54.3469 26.1819C54.3378 26.1796 54.3287 26.1774 54.3196 26.1752L53.8535 28.1201ZM46.2939 28.3262L46.7868 30.2646L46.7994 30.2612L46.2939 28.3262ZM46.2363 28.3408L45.7435 26.4025C45.5807 26.4439 45.4237 26.5056 45.2763 26.5863L46.2363 28.3408ZM46.1846 28.3691L47.1262 30.1336C47.1323 30.1303 47.1385 30.127 47.1446 30.1237L46.1846 28.3691ZM41.2617 32.8438L39.4816 31.932L39.4816 31.9321L41.2617 32.8438ZM39.8223 41.6152H41.8223V41.6136L39.8223 41.6152ZM39.8223 41.6211H37.8223C37.8223 41.63 37.8223 41.6389 37.8224 41.6478L39.8223 41.6211ZM44.9355 48.8184L44.6875 50.8029L44.6876 50.8029L44.9355 48.8184ZM54.2871 47.9873L53.7135 46.0713C53.6876 46.0791 53.662 46.0873 53.6365 46.0961L54.2871 47.9873ZM60.832 40.8018L62.79 41.2097L62.79 41.2096L60.832 40.8018ZM59.875 33.3633L58.0569 34.1966C58.066 34.2164 58.0754 34.2361 58.0851 34.2556L59.875 33.3633ZM59.8643 33.3398L61.6824 32.5065C61.6355 32.4043 61.5801 32.3061 61.5167 32.2132L59.8643 33.3398ZM59.8496 33.3184L58.162 34.3917C58.1734 34.4096 58.1852 34.4274 58.1972 34.445L59.8496 33.3184ZM57.2627 30.1982L58.5585 28.6748L58.5584 28.6747L57.2627 30.1982ZM53.957 28.1582L54.8391 26.3632L54.8373 26.3624L53.957 28.1582ZM53.9072 28.1338L54.7875 26.3379C54.6638 26.2773 54.5341 26.2296 54.4006 26.1956L53.9072 28.1338ZM36 0V2C54.7776 2 69.9999 17.2224 70 36L72 36L74 36C73.9999 15.0133 56.9868 -2 36 -2V0ZM72 36H70C70 47.1014 64.6799 56.9574 56.4427 63.1655L57.6465 64.7627L58.8502 66.3599C68.0464 59.4289 74 48.4109 74 36H72ZM57.6465 64.7627H55.6465V77.7686H57.6465H59.6465V64.7627H57.6465ZM57.6465 77.7686V75.7686H46.2646V77.7686V79.7686H57.6465V77.7686ZM46.2646 77.7686H48.2646V66.793H46.2646H44.2646V77.7686H46.2646ZM46.2646 66.793V64.793H43.2158V66.793V68.793H46.2646V66.793ZM43.2158 66.793H41.2158V77.7686H43.2158H45.2158V66.793H43.2158ZM43.2158 77.7686V75.7686H28.9883V77.7686V79.7686H43.2158V77.7686ZM28.9883 77.7686H30.9883V66.793H28.9883H26.9883V77.7686H28.9883ZM28.9883 66.793V64.793H25.7363V66.793V68.793H28.9883V66.793ZM25.7363 66.793H23.7363V77.7686H25.7363H27.7363V66.793H25.7363ZM25.7363 77.7686V75.7686H14.3535V77.7686V79.7686H25.7363V77.7686ZM14.3535 77.7686H16.3535V64.7617H14.3535H12.3535V77.7686H14.3535ZM14.3535 64.7617L15.5573 63.1645C7.32023 56.9565 2 47.101 2 36H0H-2C-2 48.4107 3.95377 59.4281 13.1498 66.3589L14.3535 64.7617ZM0 36L2 36C2.0001 17.2225 17.2225 2.0001 36 2L36 0L36 -2C15.0133 -1.99989 -1.99989 15.0133 -2 36L0 36ZM25.8145 28.4023L26.3199 26.4673C23.4529 25.7184 21.2634 25.4188 17.7889 26.2513L18.2549 28.1963L18.7209 30.1412C21.3691 29.5067 22.8618 29.6982 25.309 30.3374L25.8145 28.4023ZM18.2549 28.1963L17.7615 26.2581L17.7078 26.2718L18.2012 28.21L18.6945 30.1482L18.7482 30.1345L18.2549 28.1963ZM18.2012 28.21L17.3209 26.4141L17.2711 26.4385L18.1514 28.2344L19.0317 30.0302L19.0815 30.0058L18.2012 28.21ZM18.1514 28.2344L17.2693 26.4394C15.8759 27.1241 14.6621 27.8051 13.55 28.7509L14.8457 30.2744L16.1414 31.798C16.8763 31.173 17.7409 30.6645 19.0334 30.0294L18.1514 28.2344ZM14.8457 30.2744L13.5499 28.7509C12.4238 29.7087 11.5108 30.8438 10.5712 32.3212L12.2588 33.3945L13.9464 34.4678C14.7504 33.2037 15.415 32.4157 16.1415 31.7979L14.8457 30.2744ZM12.2588 33.3945L10.6063 32.2679L10.5917 32.2893L12.2441 33.416L13.8966 34.5427L13.9112 34.5212L12.2588 33.3945ZM12.2441 33.416L10.426 32.5827L10.4153 32.6061L12.2334 33.4395L14.0515 34.2728L14.0623 34.2493L12.2441 33.416ZM12.2334 33.4395L10.4435 32.5471C8.97245 35.4978 8.70199 38.3265 9.31839 41.2858L11.2764 40.8779L13.2343 40.4701C12.7914 38.3436 12.9743 36.436 14.0233 34.3318L12.2334 33.4395ZM11.2764 40.8779L9.31841 41.2858C9.95699 44.351 12.2651 48.4877 17.2477 49.9795L17.8213 48.0635L18.3949 46.1475C15.1992 45.1907 13.6642 42.5336 13.2343 40.47L11.2764 40.8779ZM17.8213 48.0635L17.1707 49.9547C20.2565 51.0162 24.7065 51.2183 27.4208 50.8791L27.1729 48.8945L26.9249 46.91C24.6609 47.1929 20.8491 46.99 18.4718 46.1722L17.8213 48.0635ZM27.1729 48.8945L27.4211 50.8791C31.5246 50.3657 34.2271 46.14 34.286 41.7239L32.2861 41.6973L30.2863 41.6706C30.2437 44.8667 28.3627 46.7301 26.9246 46.91L27.1729 48.8945ZM32.2861 41.6973H34.2861V41.6914H32.2861H30.2861V41.6973H32.2861ZM32.2861 41.6914L34.2861 41.693C34.2894 37.562 33.8792 34.4537 32.6268 32.0082L30.8467 32.9199L29.0666 33.8316C29.8693 35.3989 30.2893 37.7109 30.2861 41.6898L32.2861 41.6914ZM30.8467 32.9199L32.6268 32.0082C31.3163 29.4494 29.2665 27.9622 26.8655 26.6809L25.9238 28.4453L24.9822 30.2098C27.086 31.3325 28.2988 32.3326 29.0666 33.8316L30.8467 32.9199ZM25.9238 28.4453L26.8839 26.6908L26.8321 26.6625L25.8721 28.417L24.912 30.1715L24.9638 30.1998L25.9238 28.4453ZM25.8721 28.417L26.3649 26.4787L26.3073 26.464L25.8145 28.4023L25.3217 30.3407L25.3793 30.3553L25.8721 28.417ZM53.8535 28.1201L54.3196 26.1752C50.8447 25.3425 48.6555 25.6422 45.7885 26.3911L46.2939 28.3262L46.7994 30.2612C49.2468 29.622 50.7391 29.4304 53.3874 30.0651L53.8535 28.1201ZM46.2939 28.3262L45.8011 26.3878L45.7435 26.4025L46.2363 28.3408L46.7291 30.2792L46.7867 30.2645L46.2939 28.3262ZM46.2363 28.3408L45.2763 26.5863L45.2245 26.6146L46.1846 28.3691L47.1446 30.1237L47.1964 30.0953L46.2363 28.3408ZM46.1846 28.3691L45.243 26.6047C42.8417 27.8861 40.7922 29.3733 39.4816 31.932L41.2617 32.8438L43.0418 33.7555C43.8096 32.2564 45.0224 31.2563 47.1262 30.1336L46.1846 28.3691ZM41.2617 32.8438L39.4816 31.9321C38.2292 34.3775 37.819 37.4858 37.8223 41.6168L39.8223 41.6152L41.8223 41.6136C41.8191 37.6347 42.2391 35.3227 43.0418 33.7554L41.2617 32.8438ZM39.8223 41.6152H37.8223V41.6211H39.8223H41.8223V41.6152H39.8223ZM39.8223 41.6211L37.8224 41.6478C37.8813 46.0639 40.5835 50.2899 44.6875 50.8029L44.9355 48.8184L45.1836 46.8338C43.7456 46.6541 41.8647 44.7909 41.8221 41.5944L39.8223 41.6211ZM44.9355 48.8184L44.6876 50.8029C47.4019 51.1421 51.8519 50.9401 54.9377 49.8785L54.2871 47.9873L53.6365 46.0961C51.2593 46.9139 47.4477 47.1167 45.1835 46.8338L44.9355 48.8184ZM54.2871 47.9873L54.8607 49.9033C59.8433 48.4115 62.1514 44.2749 62.79 41.2097L60.832 40.8018L58.8741 40.3938C58.4442 42.4574 56.9092 45.1145 53.7135 46.0713L54.2871 47.9873ZM60.832 40.8018L62.79 41.2096C63.4064 38.2504 63.1359 35.4216 61.6649 32.4709L59.875 33.3633L58.0851 34.2556C59.1341 36.3598 59.317 38.2674 58.8741 40.3939L60.832 40.8018ZM59.875 33.3633L61.6931 32.53L61.6824 32.5065L59.8643 33.3398L58.0461 34.1732L58.0569 34.1966L59.875 33.3633ZM59.8643 33.3398L61.5167 32.2132L61.5021 32.1917L59.8496 33.3184L58.1972 34.445L58.2118 34.4665L59.8643 33.3398ZM59.8496 33.3184L61.5372 32.2451C60.5975 30.7675 59.6846 29.6326 58.5585 28.6748L57.2627 30.1982L55.9669 31.7217C56.6934 32.3396 57.358 33.1275 58.162 34.3917L59.8496 33.3184ZM57.2627 30.1982L58.5584 28.6747C57.4463 27.7288 56.2325 27.0479 54.8391 26.3632L53.957 28.1582L53.075 29.9532C54.3677 30.5884 55.2321 31.0967 55.967 31.7217L57.2627 30.1982ZM53.957 28.1582L54.8373 26.3624L54.7875 26.3379L53.9072 28.1338L53.0269 29.9296L53.0767 29.954L53.957 28.1582ZM53.9072 28.1338L54.4006 26.1956L54.3469 26.1819L53.8535 28.1201L53.3602 30.0583L53.4139 30.072L53.9072 28.1338Z" fill="white" mask="url(#path-1-inside-1_169_658)"/>
</svg>
