<svg width="2689" height="141" viewBox="0 0 2689 141" fill="none" xmlns="http://www.w3.org/2000/svg">
<path d="M62.4707 0C96.972 0.00017319 124.94 27.9714 124.94 62.4756C124.94 81.4347 116.495 98.4193 103.162 109.877V141H81.7656V120.365H76.0342V141H49.2891V120.365H43.1748V141H21.7783V109.877C8.44594 98.4193 3.05871e-05 81.4346 0 62.4756C0 27.9713 27.9693 0 62.4707 0ZM42.3008 48.3857C37.8303 47.276 34.5244 46.9607 29.2139 48.2334L29.1602 48.2461L29.1104 48.2705C26.5965 49.5059 24.6809 50.6045 22.9863 52.0459C21.2891 53.4896 19.834 55.2588 18.21 57.8125L18.1963 57.835L18.1846 57.8584C15.8624 62.5169 15.4471 66.8675 16.4238 71.5566C17.4043 76.2631 20.9253 82.4797 28.4023 84.7275V84.7285C33.4586 86.4789 41.1812 86.8605 45.8223 86.2803C50.739 85.6654 54.9541 80.2014 55.0479 73.1816V73.1748C55.0539 65.568 54.2719 60.5612 52.3896 56.8857C50.4959 53.1879 47.5227 50.9025 43.3213 48.6602L43.2686 48.6328L43.2119 48.6172L42.3008 48.3857ZM95.9297 48.0898C90.6192 46.8172 87.3131 47.1326 82.8428 48.2422L81.9316 48.4736L81.875 48.4893L81.8223 48.5166C77.621 50.7588 74.6477 53.0446 72.7539 56.7422C70.8717 60.4175 70.0897 65.4247 70.0957 73.0312V73.0381C70.1895 80.0579 74.4045 85.5219 79.3213 86.1367C83.9624 86.7168 91.6851 86.3353 96.7412 84.585V84.584C104.218 82.336 107.739 76.1194 108.72 71.4131C109.696 66.7241 109.281 62.3732 106.959 57.7148L106.947 57.6914L106.934 57.6689C105.31 55.1152 103.854 53.3461 102.157 51.9023C100.463 50.4609 98.5471 49.3623 96.0332 48.127L95.9834 48.1025L95.9297 48.0898Z" fill="#171717"/>
<path d="M233.408 0C267.909 0.00017319 295.878 27.9714 295.878 62.4756C295.878 81.4347 287.432 98.4193 274.099 109.877V141H252.703V120.365H246.971V141H220.226V120.365H214.113V141H192.716V109.877C179.383 98.4193 170.937 81.4346 170.937 62.4756C170.937 27.9713 198.907 0 233.408 0ZM213.238 48.3857C208.768 47.276 205.462 46.9607 200.151 48.2334L200.097 48.2461L200.048 48.2705C197.534 49.5059 195.618 50.6045 193.924 52.0459C192.226 53.4896 190.771 55.2588 189.147 57.8125L189.134 57.835L189.122 57.8584C186.8 62.5169 186.384 66.8675 187.361 71.5566C188.342 76.2631 191.863 82.4797 199.34 84.7275V84.7285C204.396 86.4789 212.118 86.8605 216.76 86.2803C221.676 85.6654 225.891 80.2014 225.985 73.1816V73.1748C225.991 65.568 225.209 60.5612 223.327 56.8857C221.433 53.1879 218.46 50.9025 214.259 48.6602L214.206 48.6328L214.149 48.6172L213.238 48.3857ZM266.867 48.0898C261.556 46.8172 258.25 47.1325 253.78 48.2422L252.869 48.4736L252.812 48.4893L252.76 48.5166C248.558 50.7588 245.585 53.0446 243.691 56.7422C241.809 60.4175 241.027 65.4247 241.033 73.0312V73.0381C241.127 80.0579 245.342 85.5219 250.259 86.1367C254.9 86.7169 262.622 86.3353 267.678 84.585V84.584C275.155 82.336 278.677 76.1195 279.657 71.4131C280.634 66.7241 280.218 62.3732 277.896 57.7148L277.885 57.6914L277.871 57.6689C276.247 55.1153 274.792 53.3461 273.094 51.9023C271.4 50.4609 269.484 49.3623 266.97 48.127L266.921 48.1025L266.867 48.0898Z" fill="#171717"/>
<path d="M404.345 0C438.847 0.00017319 466.815 27.9714 466.815 62.4756C466.815 81.4347 458.369 98.4193 445.037 109.877V141H423.64V120.365H417.909V141H391.163V120.365H385.049V141H363.653V109.877C350.32 98.4193 341.875 81.4346 341.875 62.4756C341.875 27.9713 369.844 0 404.345 0ZM384.175 48.3857C379.705 47.276 376.399 46.9608 371.088 48.2334L371.035 48.2461L370.985 48.2705C368.471 49.5059 366.555 50.6045 364.861 52.0459C363.164 53.4896 361.708 55.2588 360.084 57.8125L360.071 57.835L360.059 57.8584C357.737 62.5169 357.322 66.8675 358.298 71.5566C359.279 76.2631 362.8 82.4797 370.277 84.7275V84.7285C375.333 86.4789 383.056 86.8605 387.697 86.2803C392.613 85.6653 396.829 80.2014 396.922 73.1816V73.1748C396.928 65.5681 396.146 60.5612 394.264 56.8857C392.37 53.1879 389.397 50.9025 385.196 48.6602L385.143 48.6328L385.086 48.6172L384.175 48.3857ZM437.804 48.0898C432.494 46.8172 429.188 47.1326 424.717 48.2422L423.806 48.4736L423.75 48.4893L423.697 48.5166C419.496 50.7588 416.522 53.0446 414.628 56.7422C412.746 60.4175 411.964 65.4247 411.97 73.0312V73.0381C412.064 80.0579 416.279 85.5219 421.196 86.1367C425.837 86.7168 433.56 86.3353 438.616 84.585V84.584C446.092 82.336 449.614 76.1194 450.594 71.4131C451.571 66.7241 451.156 62.3732 448.833 57.7148L448.822 57.6914L448.808 57.6689C447.184 55.1152 445.729 53.3461 444.032 51.9023C442.337 50.4609 440.422 49.3623 437.908 48.127L437.858 48.1025L437.804 48.0898Z" fill="#171717"/>
<path d="M575.282 0C609.784 0.00017319 637.752 27.9714 637.752 62.4756C637.752 81.4347 629.306 98.4193 615.974 109.877V141H594.577V120.365H588.846V141H562.1V120.365H555.987V141H534.59V109.877C521.258 98.4193 512.812 81.4346 512.812 62.4756C512.812 27.9713 540.781 0 575.282 0ZM555.113 48.3857C550.642 47.276 547.336 46.9608 542.026 48.2334L541.972 48.2461L541.922 48.2705C539.408 49.5059 537.493 50.6045 535.798 52.0459C534.101 53.4896 532.646 55.2588 531.022 57.8125L531.008 57.835L530.996 57.8584C528.674 62.5169 528.259 66.8675 529.236 71.5566C530.216 76.2631 533.737 82.4797 541.214 84.7275V84.7285C546.27 86.4789 553.993 86.8605 558.634 86.2803C563.551 85.6653 567.766 80.2014 567.86 73.1816V73.1748C567.866 65.5681 567.084 60.5612 565.201 56.8857C563.308 53.1879 560.334 50.9025 556.133 48.6602L556.08 48.6328L556.024 48.6172L555.113 48.3857ZM608.741 48.0898C603.431 46.8172 600.125 47.1326 595.655 48.2422L594.743 48.4736L594.687 48.4893L594.634 48.5166C590.433 50.7588 587.459 53.0446 585.566 56.7422C583.683 60.4175 582.901 65.4247 582.907 73.0312V73.0381C583.001 80.0579 587.216 85.5219 592.133 86.1367C596.774 86.7168 604.497 86.3353 609.553 84.585V84.584C617.03 82.336 620.551 76.1194 621.531 71.4131C622.508 66.7241 622.093 62.3732 619.771 57.7148L619.759 57.6914L619.745 57.6689C618.121 55.1152 616.666 53.3461 614.969 51.9023C613.274 50.4609 611.359 49.3623 608.845 48.127L608.795 48.1025L608.741 48.0898Z" fill="#171717"/>
<mask id="path-5-inside-1_167_322" fill="white">
<path d="M746.22 0C780.721 0.00017319 808.689 27.9714 808.689 62.4756C808.689 81.4347 800.244 98.4193 786.911 109.877V141H765.515V120.365H759.783V141H733.037V120.365H726.924V141H705.527V109.877C692.195 98.4193 683.749 81.4346 683.749 62.4756C683.749 27.9713 711.718 0 746.22 0ZM726.05 48.3857C721.579 47.276 718.273 46.9608 712.963 48.2334L712.909 48.2461L712.859 48.2705C710.346 49.5059 708.43 50.6045 706.735 52.0459C705.038 53.4896 703.583 55.2588 701.959 57.8125L701.945 57.835L701.934 57.8584C699.611 62.5169 699.196 66.8675 700.173 71.5566C701.153 76.2631 704.674 82.4797 712.151 84.7275V84.7285C717.208 86.4789 724.93 86.8605 729.571 86.2803C734.488 85.6653 738.703 80.2014 738.797 73.1816V73.1748C738.803 65.568 738.021 60.5612 736.139 56.8857C734.245 53.1879 731.272 50.9025 727.07 48.6602L727.018 48.6328L726.961 48.6172L726.05 48.3857ZM779.679 48.0898C774.368 46.8172 771.062 47.1326 766.592 48.2422L765.681 48.4736L765.624 48.4893L765.571 48.5166C761.37 50.7588 758.397 53.0446 756.503 56.7422C754.621 60.4175 753.839 65.4247 753.845 73.0312V73.0381C753.938 80.0579 758.154 85.5219 763.07 86.1367C767.711 86.7168 775.434 86.3353 780.49 84.585V84.584C787.967 82.336 791.488 76.1194 792.469 71.4131C793.445 66.7241 793.03 62.3732 790.708 57.7148L790.696 57.6914L790.683 57.6689C789.059 55.1152 787.603 53.3461 785.906 51.9023C784.212 50.4609 782.296 49.3623 779.782 48.127L779.732 48.1025L779.679 48.0898Z"/>
</mask>
<path d="M746.22 0L746.22 -2H746.22V0ZM808.689 62.4756L810.689 62.4756V62.4756H808.689ZM786.911 109.877L785.608 108.36C785.165 108.74 784.911 109.294 784.911 109.877H786.911ZM786.911 141V143C788.016 143 788.911 142.105 788.911 141H786.911ZM765.515 141H763.515C763.515 142.105 764.41 143 765.515 143V141ZM765.515 120.365H767.515C767.515 119.261 766.619 118.365 765.515 118.365V120.365ZM759.783 120.365V118.365C758.679 118.365 757.783 119.261 757.783 120.365H759.783ZM759.783 141V143C760.888 143 761.783 142.105 761.783 141H759.783ZM733.037 141H731.037C731.037 142.105 731.933 143 733.037 143V141ZM733.037 120.365H735.037C735.037 119.261 734.142 118.365 733.037 118.365V120.365ZM726.924 120.365V118.365C725.819 118.365 724.924 119.261 724.924 120.365H726.924ZM726.924 141V143C728.028 143 728.924 142.105 728.924 141H726.924ZM705.527 141H703.527C703.527 142.105 704.423 143 705.527 143V141ZM705.527 109.877H707.527C707.527 109.294 707.273 108.74 706.831 108.36L705.527 109.877ZM683.749 62.4756H681.749V62.4756L683.749 62.4756ZM726.05 48.3857L726.542 46.4473L726.532 46.4446L726.05 48.3857ZM712.963 48.2334L713.423 50.1798L713.429 50.1783L712.963 48.2334ZM712.909 48.2461L712.449 46.2997C712.304 46.3341 712.163 46.3846 712.029 46.4503L712.909 48.2461ZM712.859 48.2705L711.979 46.4747L711.977 46.4755L712.859 48.2705ZM706.735 52.0459L705.44 50.5225L705.439 50.5225L706.735 52.0459ZM701.959 57.8125L700.271 56.7393C700.264 56.7503 700.257 56.7614 700.251 56.7726L701.959 57.8125ZM701.945 57.835L700.237 56.7951C700.208 56.8424 700.181 56.8909 700.156 56.9405L701.945 57.835ZM701.934 57.8584L700.145 56.964L700.144 56.9661L701.934 57.8584ZM700.173 71.5566L698.215 71.9645L698.215 71.9645L700.173 71.5566ZM712.151 84.7275H714.151C714.151 83.8448 713.573 83.0664 712.727 82.8122L712.151 84.7275ZM712.151 84.7285H710.151C710.151 85.5809 710.692 86.3396 711.497 86.6185L712.151 84.7285ZM729.571 86.2803L729.819 88.2648L729.819 88.2648L729.571 86.2803ZM738.797 73.1816L740.797 73.2084C740.797 73.1994 740.797 73.1905 740.797 73.1816H738.797ZM738.797 73.1748L736.797 73.1732V73.1748H738.797ZM736.139 56.8857L737.919 55.9741L737.919 55.9741L736.139 56.8857ZM727.07 48.6602L728.012 46.8957C728.005 46.892 727.998 46.8883 727.991 46.8846L727.07 48.6602ZM727.018 48.6328L727.938 46.8573C727.814 46.793 727.684 46.7419 727.549 46.7048L727.018 48.6328ZM726.961 48.6172L727.493 46.6892C727.48 46.6856 727.467 46.6821 727.453 46.6787L726.961 48.6172ZM779.679 48.0898L779.213 50.0348L779.219 50.0362L779.679 48.0898ZM766.592 48.2422L766.11 46.3011L766.099 46.3037L766.592 48.2422ZM765.681 48.4736L765.188 46.5352C765.175 46.5385 765.162 46.542 765.149 46.5456L765.681 48.4736ZM765.624 48.4893L765.092 46.5613C764.958 46.5984 764.827 46.6495 764.703 46.7137L765.624 48.4893ZM765.571 48.5166L764.651 46.7411C764.644 46.7447 764.637 46.7484 764.63 46.7522L765.571 48.5166ZM756.503 56.7422L754.723 55.8305L754.723 55.8306L756.503 56.7422ZM753.845 73.0312H755.845V73.0297L753.845 73.0312ZM753.845 73.0381H751.845C751.845 73.047 751.845 73.0559 751.845 73.0648L753.845 73.0381ZM763.07 86.1367L762.822 88.1213L762.822 88.1213L763.07 86.1367ZM780.49 84.585L781.145 86.4749C781.95 86.1961 782.49 85.4373 782.49 84.585H780.49ZM780.49 84.584L779.914 82.6687C779.069 82.9229 778.49 83.7012 778.49 84.584H780.49ZM792.469 71.4131L794.427 71.821L794.427 71.8209L792.469 71.4131ZM790.708 57.7148L792.498 56.8226L792.497 56.8204L790.708 57.7148ZM790.696 57.6914L792.485 56.797C792.46 56.7474 792.434 56.6989 792.405 56.6515L790.696 57.6914ZM790.683 57.6689L792.391 56.6291C792.384 56.6179 792.377 56.6068 792.37 56.5957L790.683 57.6689ZM785.906 51.9023L787.202 50.379L787.202 50.3789L785.906 51.9023ZM779.782 48.127L780.664 46.332L780.663 46.3311L779.782 48.127ZM779.732 48.1025L780.613 46.3067C780.479 46.241 780.338 46.1905 780.192 46.1562L779.732 48.1025ZM746.22 0L746.22 2C779.616 2.00017 806.689 29.0758 806.689 62.4756H808.689H810.689C810.689 26.867 781.826 -1.99982 746.22 -2L746.22 0ZM808.689 62.4756L806.689 62.4756C806.689 80.8272 798.517 97.2661 785.608 108.36L786.911 109.877L788.215 111.394C801.97 99.5725 810.689 82.0422 810.689 62.4756L808.689 62.4756ZM786.911 109.877H784.911V141H786.911H788.911V109.877H786.911ZM786.911 141V139H765.515V141V143H786.911V141ZM765.515 141H767.515V120.365H765.515H763.515V141H765.515ZM765.515 120.365V118.365H759.783V120.365V122.365H765.515V120.365ZM759.783 120.365H757.783V141H759.783H761.783V120.365H759.783ZM759.783 141V139H733.037V141V143H759.783V141ZM733.037 141H735.037V120.365H733.037H731.037V141H733.037ZM733.037 120.365V118.365H726.924V120.365V122.365H733.037V120.365ZM726.924 120.365H724.924V141H726.924H728.924V120.365H726.924ZM726.924 141V139H705.527V141V143H726.924V141ZM705.527 141H707.527V109.877H705.527H703.527V141H705.527ZM705.527 109.877L706.831 108.36C693.922 97.2661 685.749 80.8271 685.749 62.4756L683.749 62.4756L681.749 62.4756C681.749 82.0421 690.468 99.5725 704.224 111.394L705.527 109.877ZM683.749 62.4756H685.749C685.749 29.0758 712.823 2 746.22 2V0V-2C710.614 -2 681.749 26.8669 681.749 62.4756H683.749ZM726.05 48.3857L726.532 46.4446C721.819 45.2747 718.181 44.9263 712.497 46.2885L712.963 48.2334L713.429 50.1783C718.366 48.9953 721.34 49.2774 725.568 50.3268L726.05 48.3857ZM712.963 48.2334L712.503 46.287L712.449 46.2997L712.909 48.2461L713.369 50.1925L713.423 50.1798L712.963 48.2334ZM712.909 48.2461L712.029 46.4503L711.979 46.4747L712.859 48.2705L713.74 50.0663L713.789 50.0419L712.909 48.2461ZM712.859 48.2705L711.977 46.4755C709.414 47.7354 707.323 48.9204 705.44 50.5225L706.735 52.0459L708.031 53.5693C709.537 52.2886 711.278 51.2763 713.741 50.0655L712.859 48.2705ZM706.735 52.0459L705.439 50.5225C703.542 52.1362 701.963 54.079 700.271 56.7393L701.959 57.8125L703.647 58.8857C705.203 56.4386 706.534 54.843 708.031 53.5693L706.735 52.0459ZM701.959 57.8125L700.251 56.7726L700.237 56.7951L701.945 57.835L703.654 58.8749L703.667 58.8524L701.959 57.8125ZM701.945 57.835L700.156 56.9405L700.145 56.964L701.934 57.8584L703.722 58.7528L703.734 58.7294L701.945 57.835ZM701.934 57.8584L700.144 56.9661C697.61 62.0482 697.151 66.8593 698.215 71.9645L700.173 71.5566L702.131 71.1488C701.241 66.8756 701.612 62.9857 703.724 58.7507L701.934 57.8584ZM700.173 71.5566L698.215 71.9645C699.3 77.1718 703.207 84.1269 711.576 86.6429L712.151 84.7275L712.727 82.8122C706.142 80.8324 703.007 75.3544 702.131 71.1488L700.173 71.5566ZM712.151 84.7275H710.151V84.7285H712.151H714.151V84.7275H712.151ZM712.151 84.7285L711.497 86.6185C716.91 88.4924 724.954 88.873 729.819 88.2648L729.571 86.2803L729.323 84.2957C724.906 84.8479 717.505 84.4653 712.806 82.8386L712.151 84.7285ZM729.571 86.2803L729.819 88.2648C736.067 87.4835 740.695 80.8407 740.797 73.2084L738.797 73.1816L736.797 73.1549C736.711 79.562 732.909 83.8472 729.323 84.2957L729.571 86.2803ZM738.797 73.1816H740.797V73.1748H738.797H736.797V73.1816H738.797ZM738.797 73.1748L740.797 73.1764C740.803 65.4935 740.026 60.0885 737.919 55.9741L736.139 56.8857L734.359 57.7974C736.016 61.0338 736.803 65.6426 736.797 73.1732L738.797 73.1748ZM736.139 56.8857L737.919 55.9741C735.754 51.7467 732.363 49.2177 728.012 46.8957L727.07 48.6602L726.129 50.4246C730.181 52.5872 732.736 54.629 734.359 57.7974L736.139 56.8857ZM727.07 48.6602L727.991 46.8846L727.938 46.8573L727.018 48.6328L726.097 50.4083L726.15 50.4357L727.07 48.6602ZM727.018 48.6328L727.549 46.7048L727.493 46.6892L726.961 48.6172L726.429 50.5452L726.486 50.5608L727.018 48.6328ZM726.961 48.6172L727.453 46.6787L726.542 46.4473L726.05 48.3857L725.557 50.3242L726.469 50.5556L726.961 48.6172ZM779.679 48.0898L780.145 46.1449C774.461 44.7827 770.823 45.1313 766.11 46.3011L766.592 48.2422L767.074 50.1833C771.301 49.1339 774.276 48.8517 779.213 50.0348L779.679 48.0898ZM766.592 48.2422L766.099 46.3037L765.188 46.5352L765.681 48.4736L766.173 50.4121L767.084 50.1806L766.592 48.2422ZM765.681 48.4736L765.149 46.5456L765.092 46.5613L765.624 48.4893L766.156 50.4172L766.213 50.4016L765.681 48.4736ZM765.624 48.4893L764.703 46.7137L764.651 46.7411L765.571 48.5166L766.492 50.2921L766.545 50.2648L765.624 48.4893ZM765.571 48.5166L764.63 46.7522C760.279 49.0741 756.888 51.6035 754.723 55.8305L756.503 56.7422L758.283 57.6539C759.906 54.4858 762.461 52.4435 766.513 50.281L765.571 48.5166ZM756.503 56.7422L754.723 55.8306C752.616 59.9449 751.839 65.3501 751.845 73.0328L753.845 73.0312L755.845 73.0297C755.839 65.4992 756.626 60.8902 758.283 57.6538L756.503 56.7422ZM753.845 73.0312H751.845V73.0381H753.845H755.845V73.0312H753.845ZM753.845 73.0381L751.845 73.0648C751.947 80.6972 756.575 87.3401 762.822 88.1213L763.07 86.1367L763.318 84.1522C759.732 83.7038 755.93 79.4186 755.845 73.0114L753.845 73.0381ZM763.07 86.1367L762.822 88.1213C767.688 88.7294 775.731 88.3489 781.145 86.4749L780.49 84.585L779.836 82.695C775.137 84.3218 767.735 84.7042 763.318 84.1522L763.07 86.1367ZM780.49 84.585H782.49V84.584H780.49H778.49V84.585H780.49ZM780.49 84.584L781.066 86.4993C789.434 83.9832 793.342 77.0282 794.427 71.821L792.469 71.4131L790.511 71.0052C789.635 75.2106 786.499 80.6887 779.914 82.6687L780.49 84.584ZM792.469 71.4131L794.427 71.8209C795.49 66.7159 795.031 61.9045 792.498 56.8226L790.708 57.7148L788.918 58.6071C791.029 62.8419 791.401 66.7323 790.511 71.0053L792.469 71.4131ZM790.708 57.7148L792.497 56.8204L792.485 56.797L790.696 57.6914L788.907 58.5858L788.919 58.6093L790.708 57.7148ZM790.696 57.6914L792.405 56.6515L792.391 56.6291L790.683 57.6689L788.974 58.7088L788.988 58.7313L790.696 57.6914ZM790.683 57.6689L792.37 56.5957C790.678 53.9354 789.099 51.9927 787.202 50.379L785.906 51.9023L784.61 53.4257C786.108 54.6995 787.439 56.2951 788.995 58.7422L790.683 57.6689ZM785.906 51.9023L787.202 50.3789C785.319 48.7768 783.228 47.5919 780.664 46.332L779.782 48.127L778.9 49.9219C781.364 51.1328 783.105 52.145 784.61 53.4258L785.906 51.9023ZM779.782 48.127L780.663 46.3311L780.613 46.3067L779.732 48.1025L778.852 49.8984L778.902 49.9228L779.782 48.127ZM779.732 48.1025L780.192 46.1562L780.139 46.1435L779.679 48.0898L779.219 50.0362L779.272 50.0489L779.732 48.1025Z" fill="#00FFFF" mask="url(#path-5-inside-1_167_322)"/>
<path d="M917.157 0C951.658 0.00017319 979.627 27.9714 979.627 62.4756C979.627 81.4347 971.181 98.4193 957.848 109.877V141H936.452V120.365H930.72V141H903.975V120.365H897.862V141H876.465V109.877C863.132 98.4193 854.686 81.4346 854.686 62.4756C854.686 27.9713 882.656 0 917.157 0ZM896.987 48.3857C892.517 47.276 889.211 46.9607 883.9 48.2334L883.846 48.2461L883.797 48.2705C881.283 49.5059 879.367 50.6045 877.673 52.0459C875.975 53.4896 874.52 55.2588 872.896 57.8125L872.883 57.835L872.871 57.8584C870.549 62.5169 870.133 66.8675 871.11 71.5566C872.091 76.2631 875.612 82.4797 883.089 84.7275V84.7285C888.145 86.4789 895.867 86.8605 900.509 86.2803C905.425 85.6654 909.64 80.2014 909.734 73.1816V73.1748C909.74 65.568 908.958 60.5612 907.076 56.8857C905.182 53.1879 902.209 50.9025 898.008 48.6602L897.955 48.6328L897.898 48.6172L896.987 48.3857ZM950.616 48.0898C945.305 46.8172 941.999 47.1325 937.529 48.2422L936.618 48.4736L936.561 48.4893L936.509 48.5166C932.307 50.7588 929.334 53.0446 927.44 56.7422C925.558 60.4175 924.776 65.4247 924.782 73.0312V73.0381C924.876 80.0579 929.091 85.5219 934.008 86.1367C938.649 86.7169 946.371 86.3353 951.427 84.585V84.584C958.904 82.336 962.426 76.1195 963.406 71.4131C964.383 66.7241 963.967 62.3732 961.645 57.7148L961.634 57.6914L961.62 57.6689C959.996 55.1153 958.541 53.3461 956.844 51.9023C955.149 50.4609 953.233 49.3623 950.719 48.127L950.67 48.1025L950.616 48.0898Z" fill="#171717"/>
<path d="M1259.03 6.10352e-05C1293.53 0.000234226 1321.5 27.9715 1321.5 62.4756C1321.5 81.4347 1313.06 98.4194 1299.72 109.877V141H1278.33V120.365H1272.6V141H1245.85V120.365H1239.74V141H1218.34V109.877C1205.01 98.4193 1196.56 81.4346 1196.56 62.4756C1196.56 27.9714 1224.53 6.10352e-05 1259.03 6.10352e-05ZM1238.86 48.3858C1234.39 47.2761 1231.09 46.9608 1225.77 48.2335L1225.72 48.2462L1225.67 48.2706C1223.16 49.5059 1221.24 50.6046 1219.55 52.046C1217.85 53.4897 1216.39 55.2589 1214.77 57.8126L1214.76 57.835L1214.75 57.8585C1212.42 62.517 1212.01 66.8675 1212.98 71.5567C1213.97 76.2632 1217.49 82.4797 1224.96 84.7276V84.7286C1230.02 86.4789 1237.74 86.8605 1242.38 86.2803C1247.3 85.6654 1251.52 80.2014 1251.61 73.1817V73.1749C1251.61 65.5681 1250.83 60.5612 1248.95 56.8858C1247.06 53.188 1244.08 50.9025 1239.88 48.6602L1239.83 48.6329L1239.77 48.6172L1238.86 48.3858ZM1292.49 48.0899C1287.18 46.8172 1283.87 47.1326 1279.4 48.2422L1278.49 48.4737L1278.44 48.4893L1278.38 48.5167C1274.18 50.7589 1271.21 53.0447 1269.31 56.7422C1267.43 60.4176 1266.65 65.4248 1266.66 73.0313V73.0381C1266.75 80.058 1270.97 85.522 1275.88 86.1368C1280.52 86.7169 1288.25 86.3354 1293.3 84.585V84.584C1300.78 82.336 1304.3 76.1195 1305.28 71.4131C1306.26 66.7242 1305.84 62.3732 1303.52 57.7149L1303.51 57.6915L1303.49 57.669C1301.87 55.1153 1300.42 53.3461 1298.72 51.9024C1297.02 50.461 1295.11 49.3624 1292.59 48.127L1292.54 48.1026L1292.49 48.0899Z" fill="#171717"/>
<path d="M1088.09 6.10352e-05C1122.6 0.000234226 1150.56 27.9715 1150.56 62.4756C1150.56 81.4347 1142.12 98.4194 1128.79 109.877V141H1107.39V120.365H1101.66V141H1074.91V120.365H1068.8V141H1047.4V109.877C1034.07 98.4193 1025.62 81.4346 1025.62 62.4756C1025.62 27.9714 1053.59 6.10352e-05 1088.09 6.10352e-05ZM1067.92 48.3858C1063.45 47.2761 1060.15 46.9608 1054.84 48.2335L1054.78 48.2462L1054.73 48.2706C1052.22 49.5059 1050.3 50.6046 1048.61 52.046C1046.91 53.4897 1045.46 55.2589 1043.83 57.8126L1043.82 57.835L1043.81 57.8585C1041.49 62.517 1041.07 66.8675 1042.05 71.5567C1043.03 76.2632 1046.55 82.4797 1054.03 84.7276V84.7286C1059.08 86.4789 1066.8 86.8605 1071.45 86.2803C1076.36 85.6654 1080.58 80.2014 1080.67 73.1817V73.1749C1080.68 65.5681 1079.9 60.5612 1078.01 56.8858C1076.12 53.188 1073.15 50.9025 1068.94 48.6602L1068.89 48.6329L1068.84 48.6172L1067.92 48.3858ZM1121.55 48.0899C1116.24 46.8173 1112.94 47.1326 1108.47 48.2422L1107.55 48.4737L1107.5 48.4893L1107.44 48.5167C1103.24 50.7589 1100.27 53.0445 1098.38 56.7422C1096.49 60.4176 1095.71 65.4248 1095.72 73.0313V73.0381C1095.81 80.0578 1100.03 85.5217 1104.94 86.1368C1109.58 86.7169 1117.31 86.3354 1122.36 84.585V84.584C1129.84 82.3362 1133.36 76.1196 1134.34 71.4131C1135.32 66.7241 1134.9 62.3733 1132.58 57.7149L1132.57 57.6915L1132.56 57.669C1130.93 55.1155 1129.48 53.3461 1127.78 51.9024C1126.09 50.4612 1124.17 49.3623 1121.66 48.127L1121.61 48.1026L1121.55 48.0899Z" fill="#171717"/>
<path d="M1429.97 6.10352e-05C1464.47 0.000234226 1492.44 27.9715 1492.44 62.4756C1492.44 81.4347 1483.99 98.4194 1470.66 109.877V141H1449.26V120.365H1443.53V141H1416.79V120.365H1410.67V141H1389.28V109.877C1375.94 98.4193 1367.5 81.4346 1367.5 62.4756C1367.5 27.9714 1395.47 6.10352e-05 1429.97 6.10352e-05ZM1409.8 48.3858C1405.33 47.2761 1402.02 46.9608 1396.71 48.2335L1396.66 48.2462L1396.61 48.2706C1394.09 49.5059 1392.18 50.6046 1390.48 52.046C1388.79 53.4897 1387.33 55.2588 1385.71 57.8126L1385.69 57.835L1385.68 57.8585C1383.36 62.517 1382.95 66.8675 1383.92 71.5567C1384.9 76.2632 1388.42 82.4797 1395.9 84.7276V84.7286C1400.96 86.479 1408.68 86.8605 1413.32 86.2803C1418.24 85.6654 1422.45 80.2015 1422.55 73.1817V73.1749C1422.55 65.5681 1421.77 60.5612 1419.89 56.8858C1417.99 53.1879 1415.02 50.9025 1410.82 48.6602L1410.77 48.6329L1410.71 48.6172L1409.8 48.3858ZM1463.43 48.0899C1458.12 46.8174 1454.81 47.1326 1450.34 48.2422L1449.43 48.4737L1449.37 48.4893L1449.32 48.5167C1445.12 50.7589 1442.14 53.0445 1440.25 56.7422C1438.37 60.4176 1437.59 65.4248 1437.59 73.0313V73.0381C1437.69 80.0577 1441.9 85.5217 1446.82 86.1368C1451.46 86.7169 1459.18 86.3353 1464.24 84.585V84.584C1471.72 82.3362 1475.24 76.1196 1476.22 71.4131C1477.19 66.7241 1476.78 62.3733 1474.46 57.7149L1474.44 57.6915L1474.43 57.669C1472.81 55.1155 1471.35 53.3461 1469.65 51.9024C1467.96 50.4612 1466.04 49.3623 1463.53 48.127L1463.48 48.1026L1463.43 48.0899Z" fill="#171717"/>
<path d="M1600.91 6.10352e-05C1635.41 0.000234226 1663.38 27.9715 1663.38 62.4756C1663.38 81.4347 1654.93 98.4194 1641.6 109.877V141H1620.2V120.365H1614.47V141H1587.72V120.365H1581.61V141H1560.21V109.877C1546.88 98.4193 1538.44 81.4346 1538.44 62.4756C1538.44 27.9714 1566.4 6.10352e-05 1600.91 6.10352e-05ZM1580.74 48.3858C1576.27 47.2761 1572.96 46.9608 1567.65 48.2335L1567.6 48.2462L1567.55 48.2706C1565.03 49.5059 1563.12 50.6046 1561.42 52.046C1559.72 53.4897 1558.27 55.2589 1556.65 57.8126L1556.63 57.835L1556.62 57.8585C1554.3 62.517 1553.88 66.8675 1554.86 71.5567C1555.84 76.2632 1559.36 82.4797 1566.84 84.7276V84.7286C1571.89 86.4789 1579.62 86.8605 1584.26 86.2803C1589.17 85.6654 1593.39 80.2014 1593.48 73.1817V73.1749C1593.49 65.5681 1592.71 60.5612 1590.83 56.8858C1588.93 53.188 1585.96 50.9025 1581.76 48.6602L1581.7 48.6329L1581.65 48.6172L1580.74 48.3858ZM1634.37 48.0899C1629.05 46.8172 1625.75 47.1326 1621.28 48.2422L1620.37 48.4737L1620.31 48.4893L1620.26 48.5167C1616.06 50.7589 1613.08 53.0446 1611.19 56.7422C1609.31 60.4176 1608.53 65.4248 1608.53 73.0313V73.0381C1608.63 80.058 1612.84 85.522 1617.76 86.1368C1622.4 86.7169 1630.12 86.3354 1635.18 84.585V84.584C1642.65 82.3361 1646.17 76.1195 1647.16 71.4131C1648.13 66.7241 1647.72 62.3733 1645.39 57.7149L1645.38 57.6915L1645.37 57.669C1643.75 55.1153 1642.29 53.3461 1640.59 51.9024C1638.9 50.461 1636.98 49.3624 1634.47 48.127L1634.42 48.1026L1634.37 48.0899Z" fill="#171717"/>
<path d="M1771.84 6.10352e-05C1806.34 0.000234226 1834.31 27.9715 1834.31 62.4756C1834.31 81.4347 1825.87 98.4194 1812.53 109.877V141H1791.14V120.365H1785.41V141H1758.66V120.365H1752.55V141H1731.15V109.877C1717.82 98.4193 1709.37 81.4346 1709.37 62.4756C1709.37 27.9714 1737.34 6.10352e-05 1771.84 6.10352e-05ZM1751.67 48.3858C1747.2 47.2761 1743.9 46.9608 1738.59 48.2335L1738.53 48.2462L1738.48 48.2706C1735.97 49.5059 1734.05 50.6046 1732.36 52.046C1730.66 53.4897 1729.21 55.2588 1727.58 57.8126L1727.57 57.835L1727.56 57.8585C1725.23 62.517 1724.82 66.8675 1725.8 71.5567C1726.78 76.2632 1730.3 82.4797 1737.77 84.7276V84.7286C1742.83 86.479 1750.55 86.8605 1755.19 86.2803C1760.11 85.6655 1764.33 80.2015 1764.42 73.1817V73.1749C1764.43 65.5681 1763.64 60.5612 1761.76 56.8858C1759.87 53.1879 1756.9 50.9025 1752.69 48.6602L1752.64 48.6329L1752.58 48.6172L1751.67 48.3858ZM1805.3 48.0899C1799.99 46.8172 1796.69 47.1326 1792.22 48.2422L1791.3 48.4737L1791.25 48.4893L1791.19 48.5167C1786.99 50.7589 1784.02 53.0447 1782.13 56.7422C1780.24 60.4176 1779.46 65.4248 1779.47 73.0313V73.0381C1779.56 80.058 1783.78 85.522 1788.69 86.1368C1793.33 86.7169 1801.06 86.3354 1806.11 84.585V84.584C1813.59 82.3361 1817.11 76.1195 1818.09 71.4131C1819.07 66.7242 1818.65 62.3733 1816.33 57.7149L1816.32 57.6915L1816.31 57.669C1814.68 55.1153 1813.23 53.3461 1811.53 51.9024C1809.84 50.461 1807.92 49.3624 1805.41 48.127L1805.36 48.1026L1805.3 48.0899Z" fill="#171717"/>
<path d="M1942.78 6.10352e-05C1977.28 0.000234226 2005.25 27.9715 2005.25 62.4756C2005.25 81.4347 1996.8 98.4194 1983.47 109.877V141H1962.08V120.365H1956.34V141H1929.6V120.365H1923.48V141H1902.09V109.877C1888.76 98.4193 1880.31 81.4346 1880.31 62.4756C1880.31 27.9714 1908.28 6.10352e-05 1942.78 6.10352e-05ZM1922.61 48.3858C1918.14 47.2761 1914.83 46.9608 1909.52 48.2335L1909.47 48.2462L1909.42 48.2706C1906.91 49.5059 1904.99 50.6046 1903.3 52.046C1901.6 53.4897 1900.14 55.2588 1898.52 57.8126L1898.51 57.835L1898.49 57.8585C1896.17 62.517 1895.76 66.8675 1896.73 71.5567C1897.71 76.2632 1901.24 82.4797 1908.71 84.7276V84.7286C1913.77 86.479 1921.49 86.8605 1926.13 86.2803C1931.05 85.6654 1935.26 80.2015 1935.36 73.1817V73.1749C1935.36 65.5681 1934.58 60.5612 1932.7 56.8858C1930.81 53.1879 1927.83 50.9025 1923.63 48.6602L1923.58 48.6329L1923.52 48.6172L1922.61 48.3858ZM1976.24 48.0899C1970.93 46.8172 1967.62 47.1326 1963.15 48.2422L1962.24 48.4737L1962.19 48.4893L1962.13 48.5167C1957.93 50.7589 1954.96 53.0447 1953.06 56.7422C1951.18 60.4176 1950.4 65.4248 1950.41 73.0313V73.0381C1950.5 80.058 1954.71 85.522 1959.63 86.1368C1964.27 86.7169 1972 86.3354 1977.05 84.585V84.584C1984.53 82.336 1988.05 76.1195 1989.03 71.4131C1990.01 66.7242 1989.59 62.3733 1987.27 57.7149L1987.26 57.6915L1987.24 57.669C1985.62 55.1153 1984.16 53.3461 1982.47 51.9024C1980.77 50.461 1978.86 49.3624 1976.34 48.127L1976.29 48.1026L1976.24 48.0899Z" fill="#171717"/>
<path d="M2113.72 6.10352e-05C2148.22 0.000234226 2176.19 27.9715 2176.19 62.4756C2176.19 81.4347 2167.74 98.4194 2154.41 109.877V141H2133.01V120.365H2127.28V141H2100.54V120.365H2094.42V141H2073.03V109.877C2059.69 98.4193 2051.25 81.4346 2051.25 62.4756C2051.25 27.9714 2079.22 6.10352e-05 2113.72 6.10352e-05ZM2093.55 48.3858C2089.08 47.2761 2085.77 46.9608 2080.46 48.2335L2080.41 48.2462L2080.36 48.2706C2077.84 49.5059 2075.93 50.6045 2074.23 52.046C2072.54 53.4897 2071.08 55.2588 2069.46 57.8126L2069.44 57.835L2069.43 57.8585C2067.11 62.517 2066.69 66.8675 2067.67 71.5567C2068.65 76.2632 2072.17 82.4797 2079.65 84.7276V84.7286C2084.71 86.479 2092.43 86.8605 2097.07 86.2803C2101.99 85.6655 2106.2 80.2015 2106.3 73.1817V73.1749C2106.3 65.5681 2105.52 60.5612 2103.64 56.8858C2101.74 53.1879 2098.77 50.9025 2094.57 48.6602L2094.52 48.6329L2094.46 48.6172L2093.55 48.3858ZM2147.18 48.0899C2141.87 46.8172 2138.56 47.1326 2134.09 48.2422L2133.18 48.4737L2133.12 48.4893L2133.07 48.5167C2128.87 50.7589 2125.9 53.0446 2124 56.7422C2122.12 60.4176 2121.34 65.4248 2121.34 73.0313V73.0381C2121.44 80.058 2125.65 85.522 2130.57 86.1368C2135.21 86.7169 2142.93 86.3354 2147.99 84.585V84.584C2155.47 82.3361 2158.99 76.1195 2159.97 71.4131C2160.94 66.7241 2160.53 62.3733 2158.21 57.7149L2158.19 57.6915L2158.18 57.669C2156.56 55.1153 2155.1 53.3461 2153.4 51.9024C2151.71 50.461 2149.79 49.3624 2147.28 48.127L2147.23 48.1026L2147.18 48.0899Z" fill="#171717"/>
<path d="M2284.66 6.10352e-05C2319.16 0.000234226 2347.12 27.9715 2347.12 62.4756C2347.12 81.4347 2338.68 98.4194 2325.35 109.877V141H2303.95V120.365H2298.22V141H2271.47V120.365H2265.36V141H2243.96V109.877C2230.63 98.4193 2222.18 81.4346 2222.18 62.4756C2222.18 27.9714 2250.15 6.10352e-05 2284.66 6.10352e-05ZM2264.49 48.3858C2260.01 47.2761 2256.71 46.9608 2251.4 48.2335L2251.34 48.2462L2251.29 48.2706C2248.78 49.506 2246.87 50.6045 2245.17 52.046C2243.47 53.4897 2242.02 55.2588 2240.39 57.8126L2240.38 57.835L2240.37 57.8585C2238.05 62.5169 2237.63 66.8676 2238.61 71.5567C2239.59 76.2631 2243.11 82.4797 2250.59 84.7276V84.7286C2255.64 86.479 2263.37 86.8605 2268.01 86.2803C2272.92 85.6655 2277.14 80.2015 2277.23 73.1817V73.1749C2277.24 65.5681 2276.46 60.5612 2274.57 56.8858C2272.68 53.188 2269.71 50.9025 2265.51 48.6602L2265.45 48.6329L2265.4 48.6172L2264.49 48.3858ZM2318.11 48.0899C2312.8 46.8172 2309.5 47.1326 2305.03 48.2422L2304.12 48.4737L2304.06 48.4893L2304.01 48.5167C2299.81 50.7589 2296.83 53.0447 2294.94 56.7422C2293.06 60.4176 2292.27 65.4248 2292.28 73.0313V73.0381C2292.37 80.058 2296.59 85.522 2301.51 86.1368C2306.15 86.7169 2313.87 86.3354 2318.93 84.585V84.584C2326.4 82.3361 2329.92 76.1195 2330.9 71.4131C2331.88 66.7241 2331.47 62.3733 2329.14 57.7149L2329.13 57.6915L2329.12 57.669C2327.49 55.1153 2326.04 53.3461 2324.34 51.9024C2322.65 50.461 2320.73 49.3624 2318.22 48.127L2318.17 48.1026L2318.11 48.0899Z" fill="#171717"/>
<path d="M2455.59 6.10352e-05C2490.09 0.000234226 2518.06 27.9715 2518.06 62.4756C2518.06 81.4347 2509.62 98.4194 2496.28 109.877V141H2474.89V120.365H2469.16V141H2442.41V120.365H2436.3V141H2414.9V109.877C2401.57 98.4193 2393.12 81.4346 2393.12 62.4756C2393.12 27.9714 2421.09 6.10352e-05 2455.59 6.10352e-05ZM2435.42 48.3858C2430.95 47.2761 2427.65 46.9609 2422.34 48.2335L2422.28 48.2462L2422.23 48.2706C2419.72 49.5059 2417.8 50.6046 2416.11 52.046C2414.41 53.4897 2412.96 55.2589 2411.33 57.8126L2411.32 57.835L2411.31 57.8585C2408.98 62.517 2408.57 66.8675 2409.55 71.5567C2410.53 76.2632 2414.05 82.4797 2421.52 84.7276V84.7286C2426.58 86.4789 2434.3 86.8605 2438.94 86.2803C2443.86 85.6653 2448.08 80.2014 2448.17 73.1817V73.1749C2448.18 65.5682 2447.39 60.5612 2445.51 56.8858C2443.62 53.188 2440.64 50.9025 2436.44 48.6602L2436.39 48.6329L2436.33 48.6172L2435.42 48.3858ZM2489.05 48.0899C2483.74 46.8173 2480.43 47.1326 2475.96 48.2422L2475.05 48.4737L2475 48.4893L2474.94 48.5167C2470.74 50.7589 2467.77 53.0445 2465.87 56.7422C2463.99 60.4176 2463.21 65.4248 2463.22 73.0313V73.0381C2463.31 80.0578 2467.53 85.5217 2472.44 86.1368C2477.08 86.717 2484.81 86.3354 2489.86 84.585V84.584C2497.34 82.3362 2500.86 76.1196 2501.84 71.4131C2502.82 66.7241 2502.4 62.3733 2500.08 57.7149L2500.07 57.6915L2500.05 57.669C2498.43 55.1155 2496.98 53.3461 2495.28 51.9024C2493.58 50.4611 2491.67 49.3623 2489.15 48.127L2489.1 48.1026L2489.05 48.0899Z" fill="#171717"/>
<path d="M2626.53 6.10352e-05C2661.03 0.000234226 2689 27.9715 2689 62.4756C2689 81.4347 2680.55 98.4194 2667.22 109.877V141H2645.82V120.365H2640.09V141H2613.35V120.365H2607.23V141H2585.84V109.877C2572.51 98.4193 2564.06 81.4346 2564.06 62.4756C2564.06 27.9714 2592.03 6.10352e-05 2626.53 6.10352e-05ZM2606.36 48.3858C2601.89 47.2761 2598.58 46.9609 2593.27 48.2335L2593.22 48.2462L2593.17 48.2706C2590.66 49.5059 2588.74 50.6046 2587.05 52.046C2585.35 53.4897 2583.89 55.2589 2582.27 57.8126L2582.26 57.835L2582.24 57.8585C2579.92 62.517 2579.51 66.8675 2580.48 71.5567C2581.46 76.2632 2584.98 82.4797 2592.46 84.7276V84.7286C2597.52 86.4789 2605.24 86.8605 2609.88 86.2803C2614.8 85.6653 2619.01 80.2013 2619.11 73.1817V73.1749C2619.11 65.5682 2618.33 60.5612 2616.45 56.8858C2614.55 53.188 2611.58 50.9025 2607.38 48.6602L2607.33 48.6329L2607.27 48.6172L2606.36 48.3858ZM2659.99 48.0899C2654.68 46.8173 2651.37 47.1326 2646.9 48.2422L2645.99 48.4737L2645.93 48.4893L2645.88 48.5167C2641.68 50.7589 2638.71 53.0445 2636.81 56.7422C2634.93 60.4176 2634.15 65.4248 2634.15 73.0313V73.0381C2634.25 80.0578 2638.46 85.5217 2643.38 86.1368C2648.02 86.717 2655.74 86.3354 2660.8 84.585V84.584C2668.28 82.3362 2671.8 76.1196 2672.78 71.4131C2673.75 66.7241 2673.34 62.3733 2671.02 57.7149L2671.01 57.6915L2670.99 57.669C2669.37 55.1155 2667.91 53.3461 2666.22 51.9024C2664.52 50.4611 2662.61 49.3623 2660.09 48.127L2660.04 48.1026L2659.99 48.0899Z" fill="#171717"/>
</svg>
