<svg width="72" height="78" viewBox="0 0 72 78" fill="none" xmlns="http://www.w3.org/2000/svg">
<mask id="path-1-inside-1_169_668" fill="white">
<path d="M36 0C55.8822 0 71.9999 16.1178 72 36C72 47.7561 66.3632 58.1931 57.6465 64.7627V77.7686H46.2646V66.793H43.2158V77.7686H28.9883V66.793H25.7363V77.7686H14.3535V64.7617C5.637 58.1923 0 47.7558 0 36C0.000105142 16.1179 16.1179 0.000105148 36 0ZM25.8145 28.4023C23.1573 27.7083 21.3162 27.4628 18.2549 28.1963L18.2012 28.21L18.1514 28.2344C16.8084 28.8943 15.7692 29.4891 14.8457 30.2744C13.9194 31.0622 13.1306 32.0238 12.2588 33.3945L12.2441 33.416L12.2334 33.4395C10.9734 35.9669 10.7467 38.335 11.2764 40.8779C11.8106 43.4423 13.7321 46.8392 17.8213 48.0635C20.5528 49.0031 24.6837 49.2056 27.1729 48.8945C29.9436 48.5479 32.2354 45.5033 32.2861 41.6973V41.6914C32.2894 37.6364 31.8742 34.9263 30.8467 32.9199C29.8075 30.891 28.1762 29.6474 25.9238 28.4453L25.8721 28.417L25.8145 28.4023ZM53.8535 28.1201C50.7919 27.3865 48.9511 27.6321 46.2939 28.3262L46.2363 28.3408L46.1846 28.3691C43.9321 29.5712 42.3009 30.8149 41.2617 32.8438C40.2341 34.8501 39.819 37.5602 39.8223 41.6152V41.6211C39.873 45.4274 42.1646 48.472 44.9355 48.8184C47.4248 49.1294 51.5556 48.927 54.2871 47.9873C58.3762 46.763 60.2978 43.3661 60.832 40.8018C61.3617 38.2589 61.135 35.8907 59.875 33.3633L59.8643 33.3398L59.8496 33.3184C58.9777 31.9475 58.189 30.9861 57.2627 30.1982C56.3392 29.4128 55.3001 28.8182 53.957 28.1582L53.9072 28.1338L53.8535 28.1201Z"/>
</mask>
<path d="M36 0V-3H36L36 0ZM72 36H75V36L72 36ZM57.6465 64.7627L55.8409 62.3669C55.0887 62.9338 54.6465 63.8209 54.6465 64.7627H57.6465ZM57.6465 77.7686V80.7686C59.3033 80.7686 60.6465 79.4254 60.6465 77.7686H57.6465ZM46.2646 77.7686H43.2646C43.2646 79.4254 44.6078 80.7686 46.2646 80.7686V77.7686ZM46.2646 66.793H49.2646C49.2646 65.1361 47.9215 63.793 46.2646 63.793V66.793ZM43.2158 66.793V63.793C41.559 63.793 40.2158 65.1361 40.2158 66.793H43.2158ZM43.2158 77.7686V80.7686C44.8727 80.7686 46.2158 79.4254 46.2158 77.7686H43.2158ZM28.9883 77.7686H25.9883C25.9883 79.4254 27.3314 80.7686 28.9883 80.7686V77.7686ZM28.9883 66.793H31.9883C31.9883 65.1361 30.6451 63.793 28.9883 63.793V66.793ZM25.7363 66.793V63.793C24.0795 63.793 22.7363 65.1361 22.7363 66.793H25.7363ZM25.7363 77.7686V80.7686C27.3932 80.7686 28.7363 79.4254 28.7363 77.7686H25.7363ZM14.3535 77.7686H11.3535C11.3535 79.4254 12.6967 80.7686 14.3535 80.7686V77.7686ZM14.3535 64.7617H17.3535C17.3535 63.8199 16.9113 62.9328 16.1591 62.366L14.3535 64.7617ZM0 36L-3 36V36H0ZM25.8145 28.4023L25.0563 31.305C25.0626 31.3066 25.0689 31.3082 25.0753 31.3098L25.8145 28.4023ZM18.2549 28.1963L17.5558 25.2789C17.5422 25.2822 17.5285 25.2855 17.5148 25.289L18.2549 28.1963ZM18.2012 28.21L17.4611 25.3027C17.2608 25.3537 17.0663 25.4252 16.8807 25.5162L18.2012 28.21ZM18.1514 28.2344L16.8309 25.5406L16.8283 25.5419L18.1514 28.2344ZM14.8457 30.2744L12.9022 27.9891L12.9021 27.9892L14.8457 30.2744ZM12.2588 33.3945L14.7375 35.0845C14.7555 35.0581 14.773 35.0315 14.7902 35.0045L12.2588 33.3945ZM12.2441 33.416L9.76546 31.726C9.67039 31.8654 9.58726 32.0126 9.51695 32.166L12.2441 33.416ZM12.2334 33.4395L14.9182 34.778C14.9328 34.7487 14.947 34.7192 14.9606 34.6894L12.2334 33.4395ZM11.2764 40.8779L8.3394 41.4897L8.33943 41.4898L11.2764 40.8779ZM17.8213 48.0635L18.7971 45.2266C18.7589 45.2135 18.7204 45.2011 18.6817 45.1895L17.8213 48.0635ZM27.1729 48.8945L27.5448 51.8714L27.5453 51.8713L27.1729 48.8945ZM32.2861 41.6973L35.2859 41.7373C35.286 41.7239 35.2861 41.7106 35.2861 41.6973H32.2861ZM32.2861 41.6914L29.2861 41.689V41.6914H32.2861ZM30.8467 32.9199L33.5169 31.5524L33.5168 31.5524L30.8467 32.9199ZM25.9238 28.4453L24.4838 31.0771C24.493 31.0821 24.5022 31.0871 24.5114 31.092L25.9238 28.4453ZM25.8721 28.417L27.3121 25.7852C27.091 25.6642 26.8555 25.5716 26.6113 25.5095L25.8721 28.417ZM53.8535 28.1201L54.5936 25.2128C54.5799 25.2094 54.5663 25.206 54.5526 25.2027L53.8535 28.1201ZM46.2939 28.3262L47.0331 31.2337C47.0395 31.2321 47.0458 31.2304 47.0521 31.2288L46.2939 28.3262ZM46.2363 28.3408L45.4971 25.4333C45.2529 25.4954 45.0174 25.5881 44.7963 25.709L46.2363 28.3408ZM46.1846 28.3691L47.597 31.0158C47.6062 31.0109 47.6154 31.0059 47.6246 31.0009L46.1846 28.3691ZM41.2617 32.8438L38.5916 31.4761L38.5915 31.4762L41.2617 32.8438ZM39.8223 41.6152H42.8223V41.6129L39.8223 41.6152ZM39.8223 41.6211H36.8223C36.8223 41.6344 36.8224 41.6478 36.8225 41.6611L39.8223 41.6211ZM44.9355 48.8184L44.5634 51.7952L44.5636 51.7952L44.9355 48.8184ZM54.2871 47.9873L53.4267 45.1133C53.3879 45.1249 53.3494 45.1373 53.3112 45.1505L54.2871 47.9873ZM60.832 40.8018L63.769 41.4136L63.769 41.4135L60.832 40.8018ZM59.875 33.3633L57.1478 34.6132C57.1614 34.643 57.1756 34.6725 57.1902 34.7018L59.875 33.3633ZM59.8643 33.3398L62.5915 32.0899C62.5211 31.9365 62.438 31.7893 62.3429 31.6498L59.8643 33.3398ZM59.8496 33.3184L57.3182 34.9283C57.3353 34.9553 57.3529 34.982 57.3709 35.0084L59.8496 33.3184ZM57.2627 30.1982L59.2063 27.913L59.2063 27.913L57.2627 30.1982ZM53.957 28.1582L55.2801 25.4657L55.2775 25.4644L53.957 28.1582ZM53.9072 28.1338L55.2277 25.44C55.0421 25.349 54.8476 25.2775 54.6473 25.2265L53.9072 28.1338ZM36 0V3C54.2253 3 68.9999 17.7747 69 36L72 36L75 36C74.9999 14.461 57.5391 -3 36 -3V0ZM72 36H69C69 46.774 63.8382 56.3395 55.8409 62.3669L57.6465 64.7627L59.4521 67.1585C68.8881 60.0468 75 48.7383 75 36H72ZM57.6465 64.7627H54.6465V77.7686H57.6465H60.6465V64.7627H57.6465ZM57.6465 77.7686V74.7686H46.2646V77.7686V80.7686H57.6465V77.7686ZM46.2646 77.7686H49.2646V66.793H46.2646H43.2646V77.7686H46.2646ZM46.2646 66.793V63.793H43.2158V66.793V69.793H46.2646V66.793ZM43.2158 66.793H40.2158V77.7686H43.2158H46.2158V66.793H43.2158ZM43.2158 77.7686V74.7686H28.9883V77.7686V80.7686H43.2158V77.7686ZM28.9883 77.7686H31.9883V66.793H28.9883H25.9883V77.7686H28.9883ZM28.9883 66.793V63.793H25.7363V66.793V69.793H28.9883V66.793ZM25.7363 66.793H22.7363V77.7686H25.7363H28.7363V66.793H25.7363ZM25.7363 77.7686V74.7686H14.3535V77.7686V80.7686H25.7363V77.7686ZM14.3535 77.7686H17.3535V64.7617H14.3535H11.3535V77.7686H14.3535ZM14.3535 64.7617L16.1591 62.366C8.16185 56.3386 3 46.7736 3 36H0H-3C-3 48.7381 3.11215 60.046 12.5479 67.1575L14.3535 64.7617ZM0 36L3 36C3.0001 17.7748 17.7748 3.0001 36 3L36 0L36 -3C14.461 -2.99989 -2.99989 14.461 -3 36L0 36ZM25.8145 28.4023L26.5726 25.4997C23.6007 24.7234 21.237 24.3968 17.5558 25.2789L18.2549 28.1963L18.9539 31.1137C21.3955 30.5287 22.714 30.6931 25.0563 31.305L25.8145 28.4023ZM18.2549 28.1963L17.5148 25.289L17.4611 25.3027L18.2012 28.21L18.9412 31.1173L18.9949 31.1036L18.2549 28.1963ZM18.2012 28.21L16.8807 25.5162L16.8309 25.5406L18.1514 28.2344L19.4718 30.9281L19.5216 30.9037L18.2012 28.21ZM18.1514 28.2344L16.8283 25.5419C15.4097 26.239 14.1085 26.9632 12.9022 27.9891L14.8457 30.2744L16.7892 32.5597C17.4298 32.015 18.2071 31.5496 19.4744 30.9269L18.1514 28.2344ZM14.8457 30.2744L12.9021 27.9892C11.676 29.032 10.701 30.2538 9.72739 31.7846L12.2588 33.3945L14.7902 35.0045C15.5603 33.7937 16.1628 33.0925 16.7894 32.5596L14.8457 30.2744ZM12.2588 33.3945L9.78011 31.7045L9.76546 31.726L12.2441 33.416L14.7228 35.106L14.7375 35.0845L12.2588 33.3945ZM12.2441 33.416L9.51695 32.166L9.5062 32.1895L12.2334 33.4395L14.9606 34.6894L14.9713 34.666L12.2441 33.416ZM12.2334 33.4395L9.54856 32.1009C7.972 35.2633 7.67964 38.3222 8.3394 41.4897L11.2764 40.8779L14.2133 40.2662C13.8137 38.3478 13.9747 36.6705 14.9182 34.778L12.2334 33.4395ZM11.2764 40.8779L8.33943 41.4898C9.03018 44.8054 11.5315 49.312 16.9609 50.9374L17.8213 48.0635L18.6817 45.1895C15.9327 44.3665 14.5911 42.0793 14.2133 40.2661L11.2764 40.8779ZM17.8213 48.0635L16.8454 50.9003C20.1084 52.0227 24.718 52.2246 27.5448 51.8714L27.1729 48.8945L26.8009 45.9177C24.6495 46.1865 20.9973 45.9834 18.7971 45.2266L17.8213 48.0635ZM27.1729 48.8945L27.5453 51.8713C32.315 51.2746 35.2229 46.4584 35.2859 41.7373L32.2861 41.6973L29.2864 41.6573C29.2479 44.5483 27.5722 45.8212 26.8004 45.9177L27.1729 48.8945ZM32.2861 41.6973H35.2861V41.6914H32.2861H29.2861V41.6973H32.2861ZM32.2861 41.6914L35.2861 41.6938C35.2894 37.5247 34.8817 34.2174 33.5169 31.5524L30.8467 32.9199L28.1765 34.2875C28.8668 35.6352 29.2893 37.7481 29.2861 41.689L32.2861 41.6914ZM30.8467 32.9199L33.5168 31.5524C32.0706 28.7286 29.8117 27.1197 27.3363 25.7986L25.9238 28.4453L24.5114 31.092C26.5408 32.175 27.5445 33.0534 28.1765 34.2875L30.8467 32.9199ZM25.9238 28.4453L27.3639 25.8135L27.3121 25.7852L25.8721 28.417L24.432 31.0488L24.4838 31.0771L25.9238 28.4453ZM25.8721 28.417L26.6113 25.5095L26.5536 25.4948L25.8145 28.4023L25.0753 31.3098L25.1329 31.3245L25.8721 28.417ZM53.8535 28.1201L54.5526 25.2027C50.8711 24.3205 48.5077 24.6473 45.5358 25.4236L46.2939 28.3262L47.0521 31.2288C49.3946 30.6169 50.7127 30.4524 53.1544 31.0375L53.8535 28.1201ZM46.2939 28.3262L45.5547 25.4187L45.4971 25.4333L46.2363 28.3408L46.9755 31.2483L47.0331 31.2337L46.2939 28.3262ZM46.2363 28.3408L44.7963 25.709L44.7445 25.7374L46.1846 28.3691L47.6246 31.0009L47.6764 30.9726L46.2363 28.3408ZM46.1846 28.3691L44.7721 25.7224C42.2966 27.0435 40.0378 28.6525 38.5916 31.4761L41.2617 32.8438L43.9319 34.2114C44.564 32.9772 45.5676 32.0988 47.597 31.0158L46.1846 28.3691ZM41.2617 32.8438L38.5915 31.4762C37.2267 34.1412 36.819 37.4486 36.8223 41.6176L39.8223 41.6152L42.8223 41.6129C42.8191 37.6719 43.2416 35.559 43.9319 34.2113L41.2617 32.8438ZM39.8223 41.6152H36.8223V41.6211H39.8223H42.8223V41.6152H39.8223ZM39.8223 41.6211L36.8225 41.6611C36.8855 46.3821 39.793 51.1989 44.5634 51.7952L44.9355 48.8184L45.3077 45.8415C44.5361 45.7451 42.8606 44.4727 42.822 41.5811L39.8223 41.6211ZM44.9355 48.8184L44.5636 51.7952C47.3905 52.1485 52 51.9467 55.263 50.8241L54.2871 47.9873L53.3112 45.1505C51.1112 45.9073 47.4591 46.1104 45.3075 45.8415L44.9355 48.8184ZM54.2871 47.9873L55.1476 50.8613C60.5768 49.2358 63.0782 44.7292 63.769 41.4136L60.832 40.8018L57.8951 40.1899C57.5173 42.0031 56.1757 44.2903 53.4267 45.1133L54.2871 47.9873ZM60.832 40.8018L63.769 41.4135C64.4287 38.2461 64.1364 35.1871 62.5598 32.0248L59.875 33.3633L57.1902 34.7018C58.1337 36.5943 58.2946 38.2717 57.8951 40.19L60.832 40.8018ZM59.875 33.3633L62.6022 32.1133L62.5915 32.0899L59.8643 33.3398L57.1371 34.5898L57.1478 34.6132L59.875 33.3633ZM59.8643 33.3398L62.3429 31.6498L62.3283 31.6283L59.8496 33.3184L57.3709 35.0084L57.3856 35.0299L59.8643 33.3398ZM59.8496 33.3184L62.381 31.7084C61.4074 30.1775 60.4324 28.9558 59.2063 27.913L57.2627 30.1982L55.319 32.4835C55.9456 33.0164 56.5481 33.7174 57.3182 34.9283L59.8496 33.3184ZM57.2627 30.1982L59.2063 27.913C57.9998 26.8869 56.6987 26.1628 55.2801 25.4657L53.957 28.1582L52.634 30.8507C53.9015 31.4735 54.6785 31.9387 55.3191 32.4835L57.2627 30.1982ZM53.957 28.1582L55.2775 25.4644L55.2277 25.44L53.9072 28.1338L52.5868 30.8276L52.6366 30.852L53.957 28.1582ZM53.9072 28.1338L54.6473 25.2265L54.5936 25.2128L53.8535 28.1201L53.1135 31.0274L53.1672 31.0411L53.9072 28.1338Z" fill="#00FFFF" mask="url(#path-1-inside-1_169_668)"/>
</svg>
