<svg width="1280" height="141" viewBox="0 0 1280 141" fill="none" xmlns="http://www.w3.org/2000/svg">
<path d="M62.4756 0C96.9798 5.5664e-05 124.951 27.9714 124.951 62.4756C124.951 81.4346 116.504 98.4193 103.171 109.877V141H81.7725V120.365H76.041V141H49.293V120.365H43.1787V141H21.7803V109.877C8.44668 98.4193 3.05897e-05 81.4347 0 62.4756C0 27.9713 27.9713 0 62.4756 0ZM43.2148 48.6172C38.2653 47.3243 34.8809 46.8759 29.2158 48.2334L29.1621 48.2461L29.1123 48.2705C26.5983 49.5059 24.683 50.6045 22.9883 52.0459C21.2909 53.4896 19.836 55.2588 18.2119 57.8125L18.1973 57.835L18.1855 57.8584C15.8632 62.5168 15.448 66.8675 16.4248 71.5566C17.4053 76.2631 20.9269 82.4796 28.4043 84.7275V84.7285C33.4608 86.4789 41.1837 86.8604 45.8252 86.2803C50.7424 85.6656 54.958 80.2016 55.0518 73.1816V73.1748C55.0578 65.568 54.2759 60.5612 52.3936 56.8857C50.4996 53.1879 47.526 50.9025 43.3242 48.6602L43.2725 48.6328L43.2148 48.6172ZM95.9375 48.0898C90.2725 46.7323 86.888 47.1808 81.9385 48.4736L81.8809 48.4893L81.8291 48.5166C77.6274 50.7589 74.6538 53.0445 72.7598 56.7422C70.8774 60.4176 70.0955 65.4247 70.1016 73.0312V73.0381C70.1953 80.0581 74.4109 85.5221 79.3281 86.1367C83.9696 86.7168 91.6925 86.3353 96.749 84.585V84.584C104.226 82.336 107.748 76.1195 108.729 71.4131C109.705 66.7241 109.29 62.3732 106.968 57.7148L106.956 57.6914L106.941 57.6689C105.317 55.1153 103.862 53.346 102.165 51.9023C100.47 50.4609 98.5551 49.3623 96.041 48.127L95.9912 48.1025L95.9375 48.0898Z" fill="#171717"/>
<path d="M233.427 0C267.931 5.5664e-05 295.902 27.9714 295.902 62.4756C295.902 81.4346 287.456 98.4193 274.122 109.877V141H252.724V120.365H246.992V141H220.244V120.365H214.13V141H192.731V109.877C179.398 98.4193 170.951 81.4347 170.951 62.4756C170.951 27.9713 198.923 0 233.427 0ZM214.166 48.6172C209.216 47.3243 205.832 46.8759 200.167 48.2334L200.113 48.2461L200.063 48.2705C197.549 49.5059 195.634 50.6045 193.939 52.0459C192.242 53.4896 190.787 55.2588 189.163 57.8125L189.148 57.835L189.137 57.8584C186.814 62.5168 186.399 66.8676 187.376 71.5566C188.356 76.263 191.878 82.4796 199.355 84.7275V84.7285C204.412 86.4789 212.135 86.8604 216.776 86.2803C221.694 85.6656 225.909 80.2016 226.003 73.1816V73.1748C226.009 65.568 225.227 60.5612 223.345 56.8857C221.451 53.1879 218.477 50.9025 214.275 48.6602L214.224 48.6328L214.166 48.6172ZM266.889 48.0898C261.224 46.7323 257.839 47.1807 252.89 48.4736L252.832 48.4893L252.78 48.5166C248.579 50.7589 245.605 53.0445 243.711 56.7422C241.829 60.4176 241.047 65.4247 241.053 73.0312V73.0381C241.147 80.0581 245.362 85.5221 250.279 86.1367C254.921 86.7168 262.644 86.3353 267.7 84.585V84.584C275.178 82.336 278.699 76.1195 279.68 71.4131C280.656 66.7241 280.241 62.3732 277.919 57.7148L277.907 57.6914L277.893 57.6689C276.268 55.1154 274.814 53.346 273.116 51.9023C271.421 50.4609 269.506 49.3623 266.992 48.127L266.942 48.1025L266.889 48.0898Z" fill="#171717"/>
<path d="M404.378 0C438.882 5.5664e-05 466.854 27.9714 466.854 62.4756C466.854 81.4346 458.407 98.4193 445.073 109.877V141H423.675V120.365H417.943V141H391.195V120.365H385.081V141H363.683V109.877C350.349 98.4193 341.902 81.4347 341.902 62.4756C341.902 27.9713 369.874 0 404.378 0ZM385.117 48.6172C380.168 47.3243 376.783 46.8759 371.118 48.2334L371.065 48.2461L371.015 48.2705C368.501 49.5059 366.585 50.6045 364.891 52.0459C363.193 53.4896 361.739 55.2588 360.114 57.8125L360.1 57.835L360.088 57.8584C357.766 62.5168 357.35 66.8675 358.327 71.5566C359.308 76.2631 362.829 82.4796 370.307 84.7275V84.7285C375.363 86.4789 383.086 86.8604 387.728 86.2803C392.645 85.6656 396.86 80.2016 396.954 73.1816V73.1748C396.96 65.568 396.178 60.5612 394.296 56.8857C392.402 53.1879 389.429 50.9025 385.227 48.6602L385.175 48.6328L385.117 48.6172ZM437.84 48.0898C432.175 46.7323 428.79 47.1808 423.841 48.4736L423.783 48.4893L423.732 48.5166C419.53 50.7589 416.556 53.0445 414.662 56.7422C412.78 60.4176 411.998 65.4247 412.004 73.0312V73.0381C412.098 80.0581 416.313 85.5221 421.231 86.1367C425.872 86.7168 433.595 86.3353 438.651 84.585V84.584C446.129 82.336 449.65 76.1195 450.631 71.4131C451.608 66.7241 451.192 62.3732 448.87 57.7148L448.859 57.6914L448.844 57.6689C447.22 55.1153 445.765 53.346 444.068 51.9023C442.373 50.4609 440.458 49.3623 437.943 48.127L437.894 48.1025L437.84 48.0898Z" fill="#171717"/>
<path d="M575.329 0C609.834 5.5664e-05 637.805 27.9714 637.805 62.4756C637.805 81.4346 629.358 98.4193 616.025 109.877V141H594.626V120.365H588.894V141H562.147V120.365H556.032V141H534.634V109.877C521.3 98.4193 512.854 81.4347 512.854 62.4756C512.854 27.9713 540.825 0 575.329 0ZM556.069 48.6172C551.119 47.3243 547.735 46.8758 542.07 48.2334L542.016 48.2461L541.966 48.2705C539.452 49.5059 537.537 50.6045 535.842 52.0459C534.145 53.4896 532.69 55.2588 531.066 57.8125L531.051 57.835L531.039 57.8584C528.717 62.5168 528.302 66.8675 529.279 71.5566C530.259 76.2631 533.781 82.4796 541.258 84.7275V84.7285C546.315 86.4789 554.037 86.8604 558.679 86.2803C563.596 85.6656 567.812 80.2016 567.906 73.1816V73.1748C567.912 65.568 567.13 60.5612 565.247 56.8857C563.353 53.1879 560.38 50.9025 556.178 48.6602L556.126 48.6328L556.069 48.6172ZM608.791 48.0898C603.126 46.7323 599.742 47.1808 594.792 48.4736L594.735 48.4893L594.683 48.5166C590.481 50.7589 587.508 53.0445 585.614 56.7422C583.731 60.4176 582.949 65.4247 582.955 73.0312V73.0381C583.049 80.0581 587.265 85.5221 592.182 86.1367C596.823 86.7168 604.546 86.3353 609.603 84.585V84.584C617.08 82.336 620.602 76.1195 621.582 71.4131C622.559 66.7241 622.144 62.3732 619.822 57.7148L619.81 57.6914L619.795 57.6689C618.171 55.1153 616.716 53.346 615.019 51.9023C613.324 50.4609 611.409 49.3623 608.895 48.127L608.845 48.1025L608.791 48.0898Z" fill="#171717"/>
<mask id="path-5-inside-1_167_177" fill="white">
<path d="M746.281 0C780.785 5.5664e-05 808.756 27.9714 808.756 62.4756C808.756 81.4346 800.309 98.4193 786.976 109.877V141H765.577V120.365H759.845V141H733.098V120.365H726.984V141H705.585V109.877C692.252 98.4193 683.805 81.4347 683.805 62.4756C683.805 27.9713 711.776 0 746.281 0ZM727.02 48.6172C722.07 47.3243 718.686 46.8759 713.021 48.2334L712.967 48.2461L712.917 48.2705C710.403 49.5059 708.488 50.6045 706.793 52.0459C705.096 53.4896 703.641 55.2588 702.017 57.8125L702.002 57.835L701.99 57.8584C699.668 62.5168 699.253 66.8675 700.23 71.5566C701.21 76.2631 704.732 82.4796 712.209 84.7275V84.7285C717.266 86.4789 724.989 86.8604 729.63 86.2803C734.547 85.6656 738.763 80.2016 738.857 73.1816V73.1748C738.863 65.568 738.081 60.5612 736.198 56.8857C734.305 53.1879 731.331 50.9025 727.129 48.6602L727.077 48.6328L727.02 48.6172ZM779.742 48.0898C774.077 46.7323 770.693 47.1808 765.743 48.4736L765.686 48.4893L765.634 48.5166C761.432 50.7589 758.459 53.0445 756.565 56.7422C754.682 60.4176 753.9 65.4247 753.906 73.0312V73.0381C754 80.0581 758.216 85.5221 763.133 86.1367C767.775 86.7168 775.497 86.3353 780.554 84.585V84.584C788.031 82.336 791.553 76.1195 792.533 71.4131C793.51 66.7241 793.095 62.3732 790.773 57.7148L790.761 57.6914L790.746 57.6689C789.122 55.1153 787.667 53.346 785.97 51.9023C784.275 50.4609 782.36 49.3623 779.846 48.127L779.796 48.1025L779.742 48.0898Z"/>
</mask>
<path d="M746.281 0L746.281 -5H746.281V0ZM808.756 62.4756L813.756 62.4756V62.4756H808.756ZM786.976 109.877L783.717 106.085C782.612 107.035 781.976 108.42 781.976 109.877H786.976ZM786.976 141V146C789.737 146 791.976 143.761 791.976 141H786.976ZM765.577 141H760.577C760.577 143.761 762.816 146 765.577 146V141ZM765.577 120.365H770.577C770.577 117.604 768.339 115.365 765.577 115.365V120.365ZM759.845 120.365V115.365C757.084 115.365 754.845 117.604 754.845 120.365H759.845ZM759.845 141V146C762.606 146 764.845 143.761 764.845 141H759.845ZM733.098 141H728.098C728.098 143.761 730.336 146 733.098 146V141ZM733.098 120.365H738.098C738.098 117.604 735.859 115.365 733.098 115.365V120.365ZM726.984 120.365V115.365C724.222 115.365 721.984 117.604 721.984 120.365H726.984ZM726.984 141V146C729.745 146 731.984 143.761 731.984 141H726.984ZM705.585 141H700.585C700.585 143.761 702.824 146 705.585 146V141ZM705.585 109.877H710.585C710.585 108.42 709.949 107.035 708.844 106.085L705.585 109.877ZM683.805 62.4756H678.805V62.4756L683.805 62.4756ZM727.02 48.6172L728.328 43.7915C728.313 43.7874 728.298 43.7834 728.283 43.7795L727.02 48.6172ZM713.021 48.2334L714.171 53.0993C714.176 53.0981 714.181 53.0969 714.186 53.0957L713.021 48.2334ZM712.967 48.2461L711.817 43.3802C711.454 43.466 711.101 43.5922 710.766 43.7565L712.967 48.2461ZM712.917 48.2705L710.716 43.7809L710.712 43.783L712.917 48.2705ZM706.793 52.0459L703.554 48.2372L703.554 48.2372L706.793 52.0459ZM702.017 57.8125L706.205 60.5438C706.215 60.5279 706.226 60.5118 706.236 60.4958L702.017 57.8125ZM702.002 57.835L697.814 55.1036C697.71 55.2632 697.615 55.4285 697.53 55.5989L702.002 57.835ZM701.99 57.8584L697.518 55.6223L697.516 55.6276L701.99 57.8584ZM700.23 71.5566L695.335 72.5763L695.335 72.5764L700.23 71.5566ZM712.209 84.7275H717.209C717.209 82.5206 715.762 80.5746 713.649 79.9392L712.209 84.7275ZM712.209 84.7285H707.209C707.209 86.8595 708.56 88.7564 710.574 89.4534L712.209 84.7285ZM729.63 86.2803L730.25 91.2417L730.25 91.2417L729.63 86.2803ZM738.857 73.1816L743.856 73.2484C743.857 73.2262 743.857 73.2039 743.857 73.1816H738.857ZM738.857 73.1748L733.857 73.1708V73.1748H738.857ZM736.198 56.8857L740.649 54.6065L740.649 54.6064L736.198 56.8857ZM727.129 48.6602L729.483 44.249C729.477 44.2457 729.471 44.2424 729.465 44.2392L727.129 48.6602ZM727.077 48.6328L729.413 44.2118C729.087 44.0394 728.742 43.9037 728.386 43.8071L727.077 48.6328ZM779.742 48.0898L778.577 52.9522C778.582 52.9534 778.587 52.9546 778.592 52.9558L779.742 48.0898ZM765.743 48.4736L764.48 43.636C764.465 43.6399 764.45 43.6439 764.435 43.6479L765.743 48.4736ZM765.686 48.4893L764.377 43.6636C764.021 43.7602 763.677 43.8959 763.35 44.0683L765.686 48.4893ZM765.634 48.5166L763.298 44.0956C763.292 44.0989 763.286 44.1021 763.28 44.1054L765.634 48.5166ZM756.565 56.7422L752.115 54.4627L752.114 54.4629L756.565 56.7422ZM753.906 73.0312H758.906V73.0273L753.906 73.0312ZM753.906 73.0381H748.906C748.906 73.0603 748.907 73.0826 748.907 73.1049L753.906 73.0381ZM763.133 86.1367L762.513 91.0981L762.513 91.0981L763.133 86.1367ZM780.554 84.585L782.19 89.3099C784.203 88.6128 785.554 86.716 785.554 84.585H780.554ZM780.554 84.584L779.114 79.7957C777.001 80.4311 775.554 82.377 775.554 84.584H780.554ZM792.533 71.4131L797.428 72.4329L797.428 72.4327L792.533 71.4131ZM790.773 57.7148L795.247 55.4841L795.245 55.4788L790.773 57.7148ZM790.761 57.6914L795.233 55.4553C795.148 55.285 795.053 55.1196 794.949 54.9601L790.761 57.6914ZM790.746 57.6689L786.527 60.3522C786.538 60.3683 786.548 60.3843 786.558 60.4003L790.746 57.6689ZM785.97 51.9023L789.209 48.0937L789.209 48.0936L785.97 51.9023ZM779.846 48.127L782.051 43.6395L782.047 43.6373L779.846 48.127ZM779.796 48.1025L781.997 43.6129C781.662 43.4487 781.309 43.3225 780.946 43.2366L779.796 48.1025ZM746.281 0L746.281 5C778.023 5.00005 803.756 30.7328 803.756 62.4756H808.756H813.756C813.756 25.2099 783.546 -4.99994 746.281 -5L746.281 0ZM808.756 62.4756L803.756 62.4756C803.756 79.9157 795.993 95.5361 783.717 106.085L786.976 109.877L790.235 113.669C804.626 101.302 813.756 82.9535 813.756 62.4756L808.756 62.4756ZM786.976 109.877H781.976V141H786.976H791.976V109.877H786.976ZM786.976 141V136H765.577V141V146H786.976V141ZM765.577 141H770.577V120.365H765.577H760.577V141H765.577ZM765.577 120.365V115.365H759.845V120.365V125.365H765.577V120.365ZM759.845 120.365H754.845V141H759.845H764.845V120.365H759.845ZM759.845 141V136H733.098V141V146H759.845V141ZM733.098 141H738.098V120.365H733.098H728.098V141H733.098ZM733.098 120.365V115.365H726.984V120.365V125.365H733.098V120.365ZM726.984 120.365H721.984V141H726.984H731.984V120.365H726.984ZM726.984 141V136H705.585V141V146H726.984V141ZM705.585 141H710.585V109.877H705.585H700.585V141H705.585ZM705.585 109.877L708.844 106.085C696.568 95.5362 688.805 79.9157 688.805 62.4756L683.805 62.4756L678.805 62.4756C678.805 82.9536 687.935 101.303 702.327 113.669L705.585 109.877ZM683.805 62.4756H688.805C688.805 30.7328 714.538 5 746.281 5V0V-5C709.015 -5 678.805 25.2099 678.805 62.4756H683.805ZM727.02 48.6172L728.283 43.7795C722.808 42.3492 718.553 41.7662 711.856 43.3711L713.021 48.2334L714.186 53.0957C718.819 51.9855 721.332 52.2993 725.756 53.4549L727.02 48.6172ZM713.021 48.2334L711.871 43.3675L711.817 43.3802L712.967 48.2461L714.117 53.112L714.171 53.0993L713.021 48.2334ZM712.967 48.2461L710.766 43.7565L710.716 43.7809L712.917 48.2705L715.118 52.7601L715.168 52.7357L712.967 48.2461ZM712.917 48.2705L710.712 43.783C708.073 45.0799 705.721 46.3943 703.554 48.2372L706.793 52.0459L710.033 55.8546C711.255 54.8146 712.733 53.9319 715.122 52.758L712.917 48.2705ZM706.793 52.0459L703.554 48.2372C701.356 50.1063 699.591 52.3096 697.798 55.1292L702.017 57.8125L706.236 60.4958C707.691 58.2081 708.835 56.873 710.033 55.8546L706.793 52.0459ZM702.017 57.8125L697.829 55.0812L697.814 55.1036L702.002 57.835L706.19 60.5663L706.205 60.5438L702.017 57.8125ZM702.002 57.835L697.53 55.5989L697.518 55.6223L701.99 57.8584L706.463 60.0945L706.474 60.071L702.002 57.835ZM701.99 57.8584L697.516 55.6276C694.665 61.345 694.141 66.8472 695.335 72.5763L700.23 71.5566L705.125 70.5369C704.364 66.8879 704.671 63.6887 706.465 60.0892L701.99 57.8584ZM700.23 71.5566L695.335 72.5764C696.576 78.5352 701.063 86.5978 710.77 89.5158L712.209 84.7275L713.649 79.9392C708.4 78.3614 705.844 73.991 705.125 70.5369L700.23 71.5566ZM712.209 84.7275H707.209V84.7285H712.209H717.209V84.7275H712.209ZM712.209 84.7285L710.574 89.4534C716.523 91.5127 725.048 91.8919 730.25 91.2417L729.63 86.2803L729.01 81.3189C724.929 81.8289 718.009 81.445 713.845 80.0036L712.209 84.7285ZM729.63 86.2803L730.25 91.2417C738.494 90.2112 743.742 81.8002 743.856 73.2484L738.857 73.1816L733.857 73.1149C733.784 78.603 730.6 81.1201 729.01 81.3189L729.63 86.2803ZM738.857 73.1816H743.857V73.1748H738.857H733.857V73.1816H738.857ZM738.857 73.1748L743.857 73.1788C743.863 65.3818 743.093 59.3796 740.649 54.6065L736.198 56.8857L731.748 59.165C733.068 61.7427 733.863 65.7543 733.857 73.1708L738.857 73.1748ZM736.198 56.8857L740.649 54.6064C738.077 49.5848 734.058 46.6905 729.483 44.249L727.129 48.6602L724.775 53.0713C728.604 55.1145 730.532 56.791 731.748 59.1651L736.198 56.8857ZM727.129 48.6602L729.465 44.2392L729.413 44.2118L727.077 48.6328L724.742 53.0538L724.794 53.0811L727.129 48.6602ZM727.077 48.6328L728.386 43.8071L728.328 43.7915L727.02 48.6172L725.711 53.4429L725.769 53.4585L727.077 48.6328ZM779.742 48.0898L780.908 43.2275C774.21 41.6226 769.955 42.2057 764.48 43.636L765.743 48.4736L767.007 53.3113C771.431 52.1558 773.944 51.842 778.577 52.9522L779.742 48.0898ZM765.743 48.4736L764.435 43.6479L764.377 43.6636L765.686 48.4893L766.994 53.315L767.052 53.2993L765.743 48.4736ZM765.686 48.4893L763.35 44.0683L763.298 44.0956L765.634 48.5166L767.97 52.9376L768.021 52.9102L765.686 48.4893ZM765.634 48.5166L763.28 44.1054C758.705 46.5469 754.686 49.4415 752.115 54.4627L756.565 56.7422L761.015 59.0216C762.231 56.6476 764.16 54.9708 767.988 52.9278L765.634 48.5166ZM756.565 56.7422L752.114 54.4629C749.67 59.236 748.9 65.2384 748.906 73.0352L753.906 73.0312L758.906 73.0273C758.901 65.6109 759.695 61.5991 761.015 59.0214L756.565 56.7422ZM753.906 73.0312H748.906V73.0381H753.906H758.906V73.0312H753.906ZM753.906 73.0381L748.907 73.1049C749.021 81.6567 754.269 90.0676 762.513 91.0981L763.133 86.1367L763.753 81.1753C762.163 80.9765 758.979 78.4595 758.906 72.9713L753.906 73.0381ZM763.133 86.1367L762.513 91.0981C767.715 91.7483 776.241 91.3692 782.19 89.3099L780.554 84.585L778.918 79.86C774.754 81.3015 767.834 81.6853 763.753 81.1753L763.133 86.1367ZM780.554 84.585H785.554V84.584H780.554H775.554V84.585H780.554ZM780.554 84.584L781.994 89.3723C791.7 86.4542 796.187 78.3916 797.428 72.4329L792.533 71.4131L787.639 70.3933C786.919 73.8473 784.363 78.2178 779.114 79.7957L780.554 84.584ZM792.533 71.4131L797.428 72.4327C798.622 66.7038 798.098 61.2013 795.247 55.4841L790.773 57.7148L786.298 59.9456C788.092 63.545 788.399 66.7444 787.639 70.3935L792.533 71.4131ZM790.773 57.7148L795.245 55.4788L795.233 55.4553L790.761 57.6914L786.289 59.9275L786.301 59.9509L790.773 57.7148ZM790.761 57.6914L794.949 54.9601L794.934 54.9376L790.746 57.6689L786.558 60.4003L786.573 60.4227L790.761 57.6914ZM790.746 57.6689L794.965 54.9857C793.172 52.1661 791.407 49.9627 789.209 48.0937L785.97 51.9023L782.731 55.711C783.928 56.7294 785.072 58.0645 786.527 60.3522L790.746 57.6689ZM785.97 51.9023L789.209 48.0936C787.043 46.2508 784.69 44.9363 782.051 43.6395L779.846 48.127L777.641 52.6144C780.03 53.7883 781.508 54.6711 782.731 55.711L785.97 51.9023ZM779.846 48.127L782.047 43.6373L781.997 43.6129L779.796 48.1025L777.595 52.5921L777.645 52.6166L779.846 48.127ZM779.796 48.1025L780.946 43.2366L780.893 43.2239L779.742 48.0898L778.592 52.9558L778.646 52.9685L779.796 48.1025Z" fill="#00FFFF" mask="url(#path-5-inside-1_167_177)"/>
<path d="M917.232 0C951.736 5.5664e-05 979.707 27.9714 979.707 62.4756C979.707 81.4346 971.261 98.4193 957.927 109.877V141H936.529V120.365H930.797V141H904.049V120.365H897.935V141H876.536V109.877C863.203 98.4193 854.756 81.4347 854.756 62.4756C854.756 27.9713 882.727 0 917.232 0ZM897.971 48.6172C893.021 47.3243 889.637 46.8759 883.972 48.2334L883.918 48.2461L883.868 48.2705C881.354 49.5059 879.439 50.6045 877.744 52.0459C876.047 53.4896 874.592 55.2588 872.968 57.8125L872.953 57.835L872.942 57.8584C870.619 62.5168 870.204 66.8675 871.181 71.5566C872.161 76.2631 875.683 82.4796 883.16 84.7275V84.7285C888.217 86.4789 895.94 86.8604 900.581 86.2803C905.499 85.6656 909.714 80.2016 909.808 73.1816V73.1748C909.814 65.568 909.032 60.5612 907.15 56.8857C905.256 53.1879 902.282 50.9025 898.08 48.6602L898.029 48.6328L897.971 48.6172ZM950.694 48.0898C945.029 46.7323 941.644 47.1807 936.695 48.4736L936.637 48.4893L936.585 48.5166C932.383 50.7589 929.41 53.0445 927.516 56.7422C925.634 60.4176 924.852 65.4247 924.858 73.0312V73.0381C924.951 80.0581 929.167 85.5221 934.084 86.1367C938.726 86.7168 946.449 86.3353 951.505 84.585V84.584C958.983 82.336 962.504 76.1195 963.485 71.4131C964.461 66.7241 964.046 62.3732 961.724 57.7148L961.712 57.6914L961.698 57.6689C960.073 55.1154 958.619 53.346 956.921 51.9023C955.226 50.4609 953.311 49.3623 950.797 48.127L950.747 48.1025L950.694 48.0898Z" fill="#171717"/>
<path d="M1259.13 0C1293.64 5.5664e-05 1321.61 27.9714 1321.61 62.4756C1321.61 81.4346 1313.16 98.4193 1299.83 109.877V141H1278.43V120.365H1272.7V141H1245.95V120.365H1239.84V141H1218.44V109.877C1205.11 98.4193 1196.66 81.4347 1196.66 62.4756C1196.66 27.9713 1224.63 0 1259.13 0ZM1239.87 48.6172C1234.92 47.3243 1231.54 46.8758 1225.87 48.2334L1225.82 48.2461L1225.77 48.2705C1223.26 49.5059 1221.34 50.6045 1219.65 52.0459C1217.95 53.4896 1216.49 55.2588 1214.87 57.8125L1214.86 57.835L1214.84 57.8584C1212.52 62.5168 1212.11 66.8675 1213.08 71.5566C1214.06 76.2631 1217.59 82.4796 1225.06 84.7275V84.7285C1230.12 86.4789 1237.84 86.8604 1242.48 86.2803C1247.4 85.6656 1251.62 80.2016 1251.71 73.1816V73.1748C1251.72 65.568 1250.93 60.5612 1249.05 56.8857C1247.16 53.1879 1244.18 50.9025 1239.98 48.6602L1239.93 48.6328L1239.87 48.6172ZM1292.6 48.0898C1286.93 46.7323 1283.55 47.1808 1278.6 48.4736L1278.54 48.4893L1278.49 48.5166C1274.29 50.7589 1271.31 53.0445 1269.42 56.7422C1267.54 60.4176 1266.75 65.4247 1266.76 73.0312V73.0381C1266.85 80.0581 1271.07 85.5221 1275.99 86.1367C1280.63 86.7168 1288.35 86.3353 1293.41 84.585V84.584C1300.89 82.336 1304.41 76.1195 1305.39 71.4131C1306.36 66.7241 1305.95 62.3732 1303.63 57.7148L1303.61 57.6914L1303.6 57.6689C1301.98 55.1153 1300.52 53.346 1298.82 51.9023C1297.13 50.4609 1295.21 49.3623 1292.7 48.127L1292.65 48.1025L1292.6 48.0898Z" fill="#171717"/>
<path d="M1088.18 0C1122.69 5.5664e-05 1150.66 27.9714 1150.66 62.4756C1150.66 81.4346 1142.21 98.4193 1128.88 109.877V141H1107.48V120.365H1101.75V141H1075V120.365H1068.89V141H1047.49V109.877C1034.15 98.4193 1025.71 81.4347 1025.71 62.4756C1025.71 27.9713 1053.68 0 1088.18 0ZM1068.92 48.6172C1063.97 47.3243 1060.59 46.8758 1054.92 48.2334L1054.87 48.2461L1054.82 48.2705C1052.31 49.5059 1050.39 50.6045 1048.7 52.0459C1047 53.4896 1045.54 55.2588 1043.92 57.8125L1043.9 57.835L1043.89 57.8584C1041.57 62.5168 1041.16 66.8675 1042.13 71.5566C1043.11 76.2631 1046.63 82.4796 1054.11 84.7275V84.7285C1059.17 86.4789 1066.89 86.8604 1071.53 86.2803C1076.45 85.6656 1080.67 80.2016 1080.76 73.1816V73.1748C1080.77 65.568 1079.98 60.5612 1078.1 56.8857C1076.21 53.1879 1073.23 50.9025 1069.03 48.6602L1068.98 48.6328L1068.92 48.6172ZM1121.65 48.0898C1115.98 46.7323 1112.6 47.1808 1107.65 48.4736L1107.59 48.4893L1107.54 48.5166C1103.33 50.7589 1100.36 53.0446 1098.47 56.7422C1096.58 60.4176 1095.8 65.4247 1095.81 73.0312V73.0381C1095.9 80.0581 1100.12 85.5221 1105.04 86.1367C1109.68 86.7168 1117.4 86.3353 1122.46 84.585V84.584C1129.93 82.336 1133.46 76.1194 1134.44 71.4131C1135.41 66.7241 1135 62.3732 1132.68 57.7148L1132.66 57.6914L1132.65 57.6689C1131.02 55.1153 1129.57 53.346 1127.87 51.9023C1126.18 50.4609 1124.26 49.3623 1121.75 48.127L1121.7 48.1025L1121.65 48.0898Z" fill="#171717"/>
</svg>
